<?xml version="1.0" encoding="utf-8" standalone="no"?><!DOCTYPE svg PUBLIC "-//W3C//DTD SVG 1.1//EN" "http://www.w3.org/Graphics/SVG/1.1/DTD/svg11.dtd">
<svg preserveAspectRatio="xMinYMin meet" width="100%" height="100%" viewBox="0 0 798.000 571.000"  version="1.1" xmlns="http://www.w3.org/2000/svg" xmlns:xlink="http://www.w3.org/1999/xlink">
  <desc>Matlab Figure Converted by PLOT2SVG written by Juerg Schwizer</desc>
  <g id="topgroup">
  <rect x="0" y="0" width="798.000" height="571.000" fill="#ffffff" stroke="none" />
  <g id ="ID000000">
  <clipPath id="ID000001">
    <rect x="103.740" y="42.825" width="618.450" height="465.365"/>
  </clipPath>
      <polygon fill="#ffffff" fill-opacity="1.00" stroke="none" stroke-width="2.0pt" stroke-opacity="1.00" stroke-dasharray="none" points="103.740,508.190 722.190,508.190 722.190,42.825 103.740,42.825 "/>
      <polygon fill="#ffffff" fill-opacity="1.00" stroke="none" stroke-width="2.0pt" stroke-opacity="1.00" stroke-dasharray="none" points="103.740,508.190 722.190,508.190 722.190,508.190 103.740,508.190 "/>
      <polygon fill="#ffffff" fill-opacity="1.00" stroke="none" stroke-width="2.0pt" stroke-opacity="1.00" stroke-dasharray="none" points="103.740,508.190 103.740,508.190 103.740,42.825 103.740,42.825 "/>
    <g>
<g id="ID000002" clip-path="url(#ID000001)" >
      <polyline fill="none" stroke="#7f7f7f" stroke-width="2.0pt" stroke-dasharray="8.0pt,2.0pt" points="1.767,292.085 722.190,292.085 "/>
<g>
</g>
</g>
<g id="ID000003" clip-path="url(#ID000001)" >
      <polyline fill="none" stroke="#7f7f7f" stroke-width="2.0pt" stroke-dasharray="8.0pt,2.0pt" points="207.602,567.270 207.602,16.899 "/>
<g>
</g>
</g>
<g id="ID000004" clip-path="url(#ID000001)" >
      <polygon fill="#d5f4d5" fill-opacity="1.00" stroke="#a0f6a0" stroke-width="0.5pt" stroke-opacity="1.00" stroke-dasharray="none" points="103.740,271.597 104.920,272.313 106.100,273.207 107.281,274.192 108.461,275.155 109.641,275.978 110.821,276.550 112.002,276.782 113.182,276.625 114.362,276.071 115.542,275.152 116.723,273.931 117.903,272.491 119.083,270.926 120.263,269.330 121.444,267.794 122.624,266.395 123.804,265.202 124.984,264.260 126.165,263.595 127.345,263.217 128.525,263.114 129.705,263.257 130.886,263.610 132.066,264.129 133.246,264.767 134.426,265.474 135.607,266.206 136.787,266.924 137.967,267.591 139.147,268.182 140.328,268.676 141.508,269.064 142.688,269.338 143.868,269.505 145.049,269.584 146.229,269.609 147.409,269.622 148.589,269.671 149.770,269.800 150.950,270.042 152.130,270.414 153.310,270.921 154.491,271.553 155.671,272.285 156.851,273.086 158.031,273.925 159.212,274.768 160.392,275.590 161.572,276.384 162.752,277.162 163.933,277.953 165.113,278.809 166.293,279.791 167.473,280.958 168.654,282.349 169.834,283.979 171.014,285.825 172.194,287.821 173.375,289.867 174.555,291.832 175.735,293.570 176.915,294.929 178.096,295.779 179.276,296.028 180.456,295.637 181.636,294.630 182.817,293.094 183.997,291.167 185.177,289.013 186.357,286.803 187.538,284.688 188.718,282.781 189.898,281.146 191.078,279.799 192.259,278.711 193.439,277.813 194.619,277.016 195.799,276.219 196.980,275.329 198.160,274.269 199.340,272.993 200.520,271.495 201.701,269.799 202.881,267.953 204.061,266.017 205.241,264.040 206.422,262.049 207.602,260.046 208.782,258.011 209.962,255.924 211.143,253.780 212.323,251.615 213.503,249.516 214.683,247.622 215.864,246.114 217.044,245.196 218.224,245.069 219.404,245.892 220.585,247.756 221.765,250.667 222.945,254.529 224.125,259.156 225.306,264.285 226.486,269.616 227.666,274.840 228.846,279.681 230.027,283.926 231.207,287.445 232.387,290.193 233.567,292.213 234.748,293.614 235.928,294.549 237.108,295.187 238.288,295.687 239.469,296.180 240.649,296.751 241.829,297.440 243.009,298.249 244.190,299.153 245.370,300.110 246.550,301.078 247.730,302.027 248.911,302.939 250.091,303.811 251.271,304.661 252.451,305.522 253.632,306.433 254.812,307.429 255.992,308.537 257.172,309.758 258.353,311.074 259.533,312.443 260.713,313.817 261.893,315.143 263.073,316.380 264.254,317.503 265.434,318.508 266.614,319.407 267.794,320.222 268.975,320.978 270.155,321.698 271.335,322.384 272.515,323.025 273.696,323.588 274.876,324.017 276.056,324.247 277.236,324.211 278.417,323.853 279.597,323.134 280.777,322.042 281.957,320.594 283.138,318.832 284.318,316.818 285.498,314.630 286.678,312.358 287.859,310.095 289.039,307.932 290.219,305.955 291.399,304.230 292.580,302.799 293.760,301.673 294.940,300.831 296.120,300.222 297.301,299.772 298.481,299.397 299.661,299.021 300.841,298.585 302.022,298.062 303.202,297.462 304.382,296.829 305.562,296.233 306.743,295.755 307.923,295.476 309.103,295.459 310.283,295.736 311.464,296.300 312.644,297.110 313.824,298.088 315.004,299.139 316.185,300.166 317.365,301.091 318.545,301.872 319.725,302.517 320.906,303.084 322.086,303.672 323.266,304.402 324.446,305.399 325.627,306.761 326.807,308.546 327.987,310.761 329.167,313.359 330.348,316.249 331.528,319.311 332.708,322.417 333.888,325.447 335.069,328.308 336.249,330.943 337.429,333.337 338.609,335.512 339.790,337.519 340.970,339.424 342.150,341.303 343.330,343.221 344.511,345.227 345.691,347.351 346.871,349.601 348.051,351.966 349.232,354.418 350.412,356.928 351.592,359.466 352.772,362.010 353.953,364.547 355.133,367.076 356.313,369.597 357.493,372.102 358.674,374.577 359.854,376.990 361.034,379.294 362.214,381.431 363.395,383.343 364.575,384.984 365.755,386.325 366.935,387.368 368.116,388.146 369.296,388.716 370.476,389.156 371.656,389.546 372.837,389.960 374.017,390.439 375.197,390.989 376.377,391.575 377.558,392.124 378.738,392.536 379.918,392.705 381.098,392.540 382.279,391.980 383.459,391.009 384.639,389.663 385.819,388.021 387.000,386.198 388.180,384.331 389.360,382.561 390.540,381.016 391.721,379.795 392.901,378.962 394.081,378.542 395.261,378.521 396.442,378.860 397.622,379.505 398.802,380.406 399.982,381.522 401.163,382.841 402.343,384.375 403.523,386.161 404.703,388.254 405.884,390.708 407.064,393.566 408.244,396.834 409.424,400.474 410.605,404.398 411.785,408.465 412.965,412.500 414.145,416.313 415.325,419.723 416.506,422.579 417.686,424.771 418.866,426.243 420.046,426.987 421.227,427.030 422.407,426.427 423.587,425.243 424.767,423.541 425.948,421.370 427.128,418.768 428.308,415.759 429.488,412.354 430.669,408.565 431.849,404.409 433.029,399.915 434.209,395.123 435.390,390.089 436.570,384.883 437.750,379.581 438.930,374.260 440.111,368.993 441.291,363.843 442.471,358.856 443.651,354.062 444.832,349.478 446.012,345.107 447.192,340.949 448.372,337.001 449.553,333.265 450.733,329.744 451.913,326.440 453.093,323.353 454.274,320.466 455.454,317.749 456.634,315.148 457.814,312.593 458.995,309.993 460.175,307.244 461.355,304.242 462.535,300.890 463.716,297.111 464.896,292.865 466.076,288.157 467.256,283.048 468.437,277.647 469.617,272.113 470.797,266.635 471.977,261.412 473.158,256.626 474.338,252.425 475.518,248.899 476.698,246.069 477.879,243.884 479.059,242.236 480.239,240.965 481.419,239.890 482.600,238.837 483.780,237.661 484.960,236.268 486.140,234.623 487.321,232.759 488.501,230.760 489.681,228.742 490.861,226.835 492.042,225.154 493.222,223.778 494.402,222.739 495.582,222.021 496.763,221.569 497.943,221.302 499.123,221.130 500.303,220.978 501.484,220.797 502.664,220.566 503.844,220.296 505.024,220.022 506.205,219.779 507.385,219.594 508.565,219.468 509.745,219.367 510.926,219.219 512.106,218.925 513.286,218.375 514.466,217.470 515.647,216.136 516.827,214.352 518.007,212.159 519.187,209.653 520.368,206.981 521.548,204.330 522.728,201.897 523.908,199.870 525.089,198.410 526.269,197.631 527.449,197.586 528.629,198.257 529.810,199.555 530.990,201.332 532.170,203.384 533.350,205.485 534.531,207.405 535.711,208.940 536.891,209.930 538.071,210.277 539.252,209.955 540.432,209.001 541.612,207.515 542.792,205.636 543.973,203.534 545.153,201.377 546.333,199.317 547.513,197.475 548.694,195.925 549.874,194.686 551.054,193.735 552.234,193.002 553.415,192.394 554.595,191.801 555.775,191.117 556.955,190.254 558.136,189.147 559.316,187.768 560.496,186.125 561.676,184.259 562.857,182.232 564.037,180.126 565.217,178.025 566.397,176.002 567.577,174.117 568.758,172.405 569.938,170.881 571.118,169.534 572.298,168.338 573.479,167.262 574.659,166.269 575.839,165.326 577.019,164.412 578.200,163.517 579.380,162.637 580.560,161.779 581.740,160.951 582.921,160.168 584.101,159.443 585.281,158.794 586.461,158.243 587.642,157.817 588.822,157.547 590.002,157.461 591.182,157.587 592.363,157.934 593.543,158.499 594.723,159.253 595.903,160.152 597.084,161.136 598.264,162.137 599.444,163.103 600.624,163.993 601.805,164.798 602.985,165.543 604.165,166.281 605.345,167.087 606.526,168.045 607.706,169.237 608.886,170.720 610.066,172.517 611.247,174.612 612.427,176.943 613.607,179.416 614.787,181.906 615.968,184.283 617.148,186.426 618.328,188.230 619.508,189.624 620.689,190.573 621.869,191.078 623.049,191.167 624.229,190.896 625.410,190.337 626.590,189.568 627.770,188.672 628.950,187.732 630.131,186.826 631.311,186.024 632.491,185.388 633.671,184.970 634.852,184.803 636.032,184.902 637.212,185.258 638.392,185.840 639.573,186.591 640.753,187.433 641.933,188.280 643.113,189.042 644.294,189.635 645.474,189.996 646.654,190.083 647.834,189.877 649.015,189.377 650.195,188.599 651.375,187.567 652.555,186.298 653.736,184.811 654.916,183.118 656.096,181.236 657.276,179.184 658.457,177.005 659.637,174.763 660.817,172.550 661.997,170.481 663.178,168.689 664.358,167.309 665.538,166.456 666.718,166.210 667.899,166.604 669.079,167.610 670.259,169.143 671.439,171.068 672.620,173.215 673.800,175.404 674.980,177.464 676.160,179.261 677.341,180.711 678.521,181.788 679.701,182.522 680.881,182.987 682.062,183.279 683.242,183.495 684.422,183.715 685.602,183.984 686.783,184.309 687.963,184.660 689.143,184.983 690.323,185.211 691.504,185.280 692.684,185.141 693.864,184.777 695.044,184.195 696.225,183.434 697.405,182.558 698.585,181.642 699.765,180.764 700.946,179.988 702.126,179.367 703.306,178.926 704.486,178.668 705.667,178.579 706.847,178.636 708.027,178.808 709.207,179.068 710.388,179.397 711.568,179.783 712.748,180.220 713.928,180.708 715.109,181.244 716.289,181.823 717.469,182.427 718.649,183.033 719.830,183.612 721.010,184.132 722.190,184.564 722.190,256.838 721.010,256.818 719.830,256.718 718.649,256.564 717.469,256.381 716.289,256.188 715.109,255.997 713.928,255.818 712.748,255.656 711.568,255.517 710.388,255.415 709.207,255.373 708.027,255.423 706.847,255.603 705.667,255.957 704.486,256.522 703.306,257.316 702.126,258.336 700.946,259.546 699.765,260.880 698.585,262.244 697.405,263.532 696.225,264.638 695.044,265.470 693.864,265.967 692.684,266.110 691.504,265.923 690.323,265.467 689.143,264.827 687.963,264.105 686.783,263.388 685.602,262.741 684.422,262.192 683.242,261.727 682.062,261.290 680.881,260.797 679.701,260.155 678.521,259.273 677.341,258.088 676.160,256.578 674.980,254.773 673.800,252.755 672.620,250.647 671.439,248.604 670.259,246.795 669.079,245.371 667.899,244.456 666.718,244.126 665.538,244.407 664.358,245.267 663.178,246.638 661.997,248.424 660.817,250.512 659.637,252.793 658.457,255.169 657.276,257.555 656.096,259.882 654.916,262.096 653.736,264.152 652.555,266.012 651.375,267.639 650.195,269.004 649.015,270.083 647.834,270.865 646.654,271.351 645.474,271.568 644.294,271.560 643.113,271.395 641.933,271.154 640.753,270.930 639.573,270.814 638.392,270.884 637.212,271.200 636.032,271.795 634.852,272.671 633.671,273.802 632.491,275.137 631.311,276.605 630.131,278.120 628.950,279.596 627.770,280.949 626.590,282.103 625.410,282.994 624.229,283.572 623.049,283.798 621.869,283.644 620.689,283.093 619.508,282.146 618.328,280.821 617.148,279.160 615.968,277.228 614.787,275.120 613.607,272.944 612.427,270.815 611.247,268.847 610.066,267.134 608.886,265.737 607.706,264.678 606.526,263.937 605.345,263.451 604.165,263.131 602.985,262.874 601.805,262.588 600.624,262.199 599.444,261.667 598.264,260.992 597.084,260.206 595.903,259.366 594.723,258.540 593.543,257.802 592.363,257.211 591.182,256.810 590.002,256.624 588.822,256.658 587.642,256.902 586.461,257.335 585.281,257.934 584.101,258.678 582.921,259.541 581.740,260.502 580.560,261.538 579.380,262.621 578.200,263.715 577.019,264.790 575.839,265.815 574.659,266.770 573.479,267.652 572.298,268.479 571.118,269.287 569.938,270.124 568.758,271.043 567.577,272.092 566.397,273.298 565.217,274.664 564.037,276.168 562.857,277.765 561.676,279.391 560.496,280.977 559.316,282.466 558.136,283.811 556.955,284.992 555.775,286.015 554.595,286.912 553.415,287.738 552.234,288.559 551.054,289.454 549.874,290.495 548.694,291.738 547.513,293.218 546.333,294.930 545.153,296.827 543.973,298.813 542.792,300.755 541.612,302.489 540.432,303.840 539.252,304.648 538.071,304.791 536.891,304.209 535.711,302.908 534.531,300.975 533.350,298.566 532.170,295.892 530.990,293.192 529.810,290.717 528.629,288.695 527.449,287.309 526.269,286.677 525.089,286.845 523.908,287.778 522.728,289.370 521.548,291.466 520.368,293.877 519.187,296.410 518.007,298.887 516.827,301.170 515.647,303.165 514.466,304.827 513.286,306.156 512.106,307.186 510.926,307.972 509.745,308.570 508.565,309.033 507.385,309.396 506.205,309.673 505.024,309.861 503.844,309.945 502.664,309.913 501.484,309.762 500.303,309.512 499.123,309.213 497.943,308.939 496.763,308.782 495.582,308.841 494.402,309.203 493.222,309.924 492.042,311.023 490.861,312.474 489.681,314.211 488.501,316.137 487.321,318.143 486.140,320.127 484.960,322.010 483.780,323.754 482.600,325.374 481.419,326.939 480.239,328.559 479.059,330.379 477.879,332.551 476.698,335.215 475.518,338.473 474.338,342.378 473.158,346.925 471.977,352.049 470.797,357.634 469.617,363.529 468.437,369.559 467.256,375.540 466.076,381.303 464.896,386.705 463.716,391.639 462.535,396.043 461.355,399.903 460.175,403.252 458.995,406.160 457.814,408.725 456.634,411.062 455.454,413.293 454.274,415.532 453.093,417.882 451.913,420.430 450.733,423.240 449.553,426.356 448.372,429.802 447.192,433.585 446.012,437.693 444.832,442.100 443.651,446.768 442.471,451.647 441.291,456.672 440.111,461.770 438.930,466.861 437.750,471.858 436.570,476.675 435.390,481.236 434.209,485.478 433.029,489.356 431.849,492.848 430.669,495.956 429.488,498.697 428.308,501.096 427.128,503.176 425.948,504.944 424.767,506.385 423.587,507.455 422.407,508.085 421.227,508.190 420.046,507.682 418.866,506.491 417.686,504.578 416.506,501.955 415.325,498.679 414.145,494.866 412.965,490.668 411.785,486.261 410.605,481.829 409.424,477.537 408.244,473.522 407.064,469.871 405.884,466.626 404.703,463.781 403.523,461.298 402.343,459.117 401.163,457.183 399.982,455.461 398.802,453.937 397.622,452.634 396.442,451.601 395.261,450.898 394.081,450.584 392.901,450.696 391.721,451.244 390.540,452.191 389.360,453.459 388.180,454.941 387.000,456.505 385.819,458.021 384.639,459.372 383.459,460.480 382.279,461.302 381.098,461.840 379.918,462.132 378.738,462.238 377.558,462.228 376.377,462.165 375.197,462.092 374.017,462.029 372.837,461.961 371.656,461.848 370.476,461.631 369.296,461.241 368.116,460.612 366.935,459.694 365.755,458.466 364.575,456.928 363.395,455.110 362.214,453.061 361.034,450.838 359.854,448.490 358.674,446.055 357.493,443.553 356.313,440.980 355.133,438.314 353.953,435.529 352.772,432.603 351.592,429.524 350.412,426.307 349.232,422.988 348.051,419.629 346.871,416.297 345.691,413.068 344.511,409.998 343.330,407.118 342.150,404.421 340.970,401.867 339.790,399.386 338.609,396.890 337.429,394.298 336.249,391.554 335.069,388.637 333.888,385.576 332.708,382.448 331.528,379.364 330.348,376.455 329.167,373.846 327.987,371.642 326.807,369.901 325.627,368.628 324.446,367.777 323.266,367.259 322.086,366.955 320.906,366.737 319.725,366.493 318.545,366.142 317.365,365.642 316.185,365.003 315.004,364.280 313.824,363.564 312.644,362.961 311.464,362.580 310.283,362.506 309.103,362.782 307.923,363.405 306.743,364.321 305.562,365.441 304.382,366.649 303.202,367.834 302.022,368.908 300.841,369.816 299.661,370.546 298.481,371.127 297.301,371.618 296.120,372.092 294.940,372.622 293.760,373.270 292.580,374.077 291.399,375.052 290.219,376.175 289.039,377.403 287.859,378.672 286.678,379.904 285.498,381.024 284.318,381.970 283.138,382.693 281.957,383.172 280.777,383.407 279.597,383.418 278.417,383.233 277.236,382.881 276.056,382.390 274.876,381.777 273.696,381.053 272.515,380.226 271.335,379.300 270.155,378.274 268.975,377.146 267.794,375.912 266.614,374.564 265.434,373.089 264.254,371.478 263.073,369.725 261.893,367.829 260.713,365.799 259.533,363.666 258.353,361.472 257.172,359.277 255.992,357.153 254.812,355.174 253.632,353.406 252.451,351.888 251.271,350.632 250.091,349.617 248.911,348.791 247.730,348.091 246.550,347.456 245.370,346.846 244.190,346.243 243.009,345.654 241.829,345.107 240.649,344.630 239.469,344.235 238.288,343.906 237.108,343.591 235.928,343.192 234.748,342.577 233.567,341.602 232.387,340.124 231.207,338.036 230.027,335.286 228.846,331.898 227.666,327.967 226.486,323.654 225.306,319.167 224.125,314.731 222.945,310.559 221.765,306.830 220.585,303.667 219.404,301.133 218.224,299.226 217.044,297.896 215.864,297.060 214.683,296.621 213.503,296.494 212.323,296.613 211.143,296.945 209.962,297.481 208.782,298.235 207.602,299.227 206.422,300.471 205.241,301.962 204.061,303.675 202.881,305.556 201.701,307.528 200.520,309.498 199.340,311.372 198.160,313.070 196.980,314.544 195.799,315.788 194.619,316.841 193.439,317.781 192.259,318.705 191.078,319.714 189.898,320.883 188.718,322.247 187.538,323.785 186.357,325.428 185.177,327.062 183.997,328.543 182.817,329.722 181.636,330.465 180.456,330.660 179.276,330.242 178.096,329.195 176.915,327.557 175.735,325.414 174.555,322.892 173.375,320.144 172.194,317.328 171.014,314.587 169.834,312.035 168.654,309.744 167.473,307.745 166.293,306.029 165.113,304.565 163.933,303.302 162.752,302.190 161.572,301.181 160.392,300.242 159.212,299.350 158.031,298.490 156.851,297.661 155.671,296.865 154.491,296.104 153.310,295.382 152.130,294.700 150.950,294.066 149.770,293.490 148.589,292.994 147.409,292.608 146.229,292.366 145.049,292.299 143.868,292.423 142.688,292.733 141.508,293.194 140.328,293.754 139.147,294.352 137.967,294.926 136.787,295.431 135.607,295.842 134.426,296.163 133.246,296.423 132.066,296.673 130.886,296.984 129.705,297.431 128.525,298.083 127.345,298.995 126.165,300.203 124.984,301.714 123.804,303.507 122.624,305.536 121.444,307.734 120.263,310.019 119.083,312.301 117.903,314.493 116.723,316.521 115.542,318.331 114.362,319.895 113.182,321.211 112.002,322.301 110.821,323.199 109.641,323.947 108.461,324.592 107.281,325.179 106.100,325.748 104.920,326.344 103.740,327.003 "/>
</g>
<g id="ID000005" clip-path="url(#ID000001)" >
      <polygon fill="#d5d5f4" fill-opacity="1.00" stroke="#a0a0f6" stroke-width="0.5pt" stroke-opacity="1.00" stroke-dasharray="none" points="103.740,246.939 104.920,244.287 106.100,241.907 107.281,239.841 108.461,238.108 109.641,236.702 110.821,235.591 112.002,234.733 113.182,234.078 114.362,233.562 115.542,233.120 116.723,232.693 117.903,232.221 119.083,231.658 120.263,230.978 121.444,230.192 122.624,229.341 123.804,228.503 124.984,227.799 126.165,227.371 127.345,227.380 128.525,227.988 129.705,229.350 130.886,231.594 132.066,234.794 133.246,238.970 134.426,244.063 135.607,249.925 136.787,256.319 137.967,262.939 139.147,269.429 140.328,275.415 141.508,280.565 142.688,284.634 143.868,287.503 145.049,289.184 146.229,289.812 147.409,289.608 148.589,288.830 149.770,287.753 150.950,286.633 152.130,285.688 153.310,285.075 154.491,284.889 155.671,285.168 156.851,285.884 158.031,286.963 159.212,288.295 160.392,289.742 161.572,291.145 162.752,292.342 163.933,293.182 165.113,293.533 166.293,293.292 167.473,292.406 168.654,290.874 169.834,288.749 171.014,286.135 172.194,283.186 173.375,280.077 174.555,276.989 175.735,274.089 176.915,271.523 178.096,269.394 179.276,267.755 180.456,266.616 181.636,265.942 182.817,265.661 183.997,265.681 185.177,265.912 186.357,266.284 187.538,266.758 188.718,267.329 189.898,268.034 191.078,268.917 192.259,270.016 193.439,271.344 194.619,272.868 195.799,274.499 196.980,276.098 198.160,277.503 199.340,278.544 200.520,279.074 201.701,278.995 202.881,278.261 204.061,276.880 205.241,274.899 206.422,272.404 207.602,269.508 208.782,266.332 209.962,263.016 211.143,259.702 212.323,256.534 213.503,253.645 214.683,251.153 215.864,249.158 217.044,247.720 218.224,246.863 219.404,246.565 220.585,246.760 221.765,247.327 222.945,248.103 224.125,248.893 225.306,249.474 226.486,249.621 227.666,249.135 228.846,247.876 230.027,245.784 231.207,242.897 232.387,239.372 233.567,235.465 234.748,231.506 235.928,227.867 237.108,224.914 238.288,222.958 239.469,222.206 240.649,222.746 241.829,224.529 243.009,227.372 244.190,230.989 245.370,235.035 246.550,239.149 247.730,242.999 248.911,246.329 250.091,248.991 251.271,250.940 252.451,252.234 253.632,253.017 254.812,253.474 255.992,253.800 257.172,254.157 258.353,254.666 259.533,255.381 260.713,256.290 261.893,257.343 263.073,258.459 264.254,259.552 265.434,260.531 266.614,261.324 267.794,261.861 268.975,262.070 270.155,261.881 271.335,261.222 272.515,260.033 273.696,258.273 274.876,255.944 276.056,253.112 277.236,249.902 278.417,246.505 279.597,243.169 280.777,240.168 281.957,237.777 283.138,236.234 284.318,235.717 285.498,236.306 286.678,237.977 287.859,240.601 289.039,243.962 290.219,247.777 291.399,251.729 292.580,255.516 293.760,258.867 294.940,261.564 296.120,263.463 297.301,264.492 298.481,264.644 299.661,263.965 300.841,262.553 302.022,260.540 303.202,258.079 304.382,255.340 305.562,252.504 306.743,249.747 307.923,247.226 309.103,245.071 310.283,243.376 311.464,242.175 312.644,241.441 313.824,241.093 315.004,240.993 316.185,240.964 317.365,240.812 318.545,240.357 319.725,239.452 320.906,238.005 322.086,236.008 323.266,233.536 324.446,230.737 325.627,227.817 326.807,225.018 327.987,222.578 329.167,220.695 330.348,219.510 331.528,219.091 332.708,219.426 333.888,220.432 335.069,221.979 336.249,223.919 337.429,226.096 338.609,228.383 339.790,230.689 340.970,232.964 342.150,235.189 343.330,237.371 344.511,239.532 345.691,241.683 346.871,243.821 348.051,245.919 349.232,247.923 350.412,249.748 351.592,251.289 352.772,252.442 353.953,253.111 355.133,253.231 356.313,252.788 357.493,251.827 358.674,250.448 359.854,248.789 361.034,247.021 362.214,245.308 363.395,243.780 364.575,242.519 365.755,241.546 366.935,240.816 368.116,240.228 369.296,239.655 370.476,238.972 371.656,238.074 372.837,236.911 374.017,235.498 375.197,233.915 376.377,232.293 377.558,230.790 378.738,229.578 379.918,228.796 381.098,228.538 382.279,228.849 383.459,229.714 384.639,231.074 385.819,232.843 387.000,234.939 388.180,237.292 389.360,239.865 390.540,242.663 391.721,245.722 392.901,249.099 394.081,252.848 395.261,257.015 396.442,261.616 397.622,266.626 398.802,271.983 399.982,277.596 401.163,283.349 402.343,289.107 403.523,294.740 404.703,300.132 405.884,305.178 407.064,309.797 408.244,313.942 409.424,317.589 410.605,320.727 411.785,323.357 412.965,325.487 414.145,327.106 415.325,328.190 416.506,328.708 417.686,328.619 418.866,327.882 420.046,326.475 421.227,324.414 422.407,321.758 423.587,318.606 424.767,315.104 425.948,311.417 427.128,307.700 428.308,304.071 429.488,300.596 430.669,297.268 431.849,294.009 433.029,290.693 434.209,287.174 435.390,283.308 436.570,278.980 437.750,274.126 438.930,268.739 440.111,262.857 441.291,256.555 442.471,249.933 443.651,243.093 444.832,236.128 446.012,229.106 447.192,222.080 448.372,215.076 449.553,208.106 450.733,201.182 451.913,194.331 453.093,187.595 454.274,181.043 455.454,174.770 456.634,168.884 457.814,163.489 458.995,158.681 460.175,154.528 461.355,151.059 462.535,148.251 463.716,146.038 464.896,144.307 466.076,142.904 467.256,141.664 468.437,140.429 469.617,139.074 470.797,137.523 471.977,135.760 473.158,133.837 474.338,131.841 475.518,129.888 476.698,128.102 477.879,126.590 479.059,125.426 480.239,124.643 481.419,124.241 482.600,124.188 483.780,124.428 484.960,124.906 486.140,125.582 487.321,126.429 488.501,127.437 489.681,128.618 490.861,129.982 492.042,131.517 493.222,133.193 494.402,134.952 495.582,136.714 496.763,138.390 497.943,139.899 499.123,141.177 500.303,142.159 501.484,142.796 502.664,143.045 503.844,142.876 505.024,142.268 506.205,141.225 507.385,139.784 508.565,138.013 509.745,136.018 510.926,133.939 512.106,131.941 513.286,130.189 514.466,128.821 515.647,127.936 516.827,127.562 518.007,127.652 519.187,128.091 520.368,128.710 521.548,129.313 522.728,129.697 523.908,129.695 525.089,129.194 526.269,128.142 527.449,126.558 528.629,124.525 529.810,122.163 530.990,119.602 532.170,116.957 533.350,114.309 534.531,111.671 535.711,108.998 536.891,106.200 538.071,103.154 539.252,99.736 540.432,95.851 541.612,91.466 542.792,86.609 543.973,81.381 545.153,75.946 546.333,70.505 547.513,65.271 548.694,60.436 549.874,56.157 551.054,52.531 552.234,49.583 553.415,47.286 554.595,45.569 555.775,44.338 556.955,43.502 558.136,43.002 559.316,42.825 560.496,43.000 561.676,43.599 562.857,44.714 564.037,46.433 565.217,48.807 566.397,51.839 567.577,55.476 568.758,59.597 569.938,64.027 571.118,68.559 572.298,72.972 573.479,77.049 574.659,80.606 575.839,83.519 577.019,85.725 578.200,87.230 579.380,88.114 580.560,88.510 581.740,88.583 582.921,88.503 584.101,88.435 585.281,88.517 586.461,88.838 587.642,89.453 588.822,90.378 590.002,91.595 591.182,93.053 592.363,94.689 593.543,96.432 594.723,98.197 595.903,99.904 597.084,101.482 598.264,102.870 599.444,104.019 600.624,104.902 601.805,105.515 602.985,105.866 604.165,105.986 605.345,105.921 606.526,105.733 607.706,105.487 608.886,105.253 610.066,105.110 611.247,105.129 612.427,105.369 613.607,105.879 614.787,106.684 615.968,107.771 617.148,109.078 618.328,110.505 619.508,111.909 620.689,113.119 621.869,113.971 623.049,114.331 624.229,114.107 625.410,113.257 626.590,111.794 627.770,109.783 628.950,107.319 630.131,104.548 631.311,101.661 632.491,98.892 633.671,96.502 634.852,94.749 636.032,93.866 637.212,94.009 638.392,95.243 639.573,97.549 640.753,100.825 641.933,104.908 643.113,109.598 644.294,114.691 645.474,119.985 646.654,125.298 647.834,130.485 649.015,135.448 650.195,140.138 651.375,144.552 652.555,148.730 653.736,152.736 654.916,156.624 656.096,160.432 657.276,164.173 658.457,167.829 659.637,171.364 660.817,174.741 661.997,177.937 663.178,180.950 664.358,183.804 665.538,186.562 666.718,189.306 667.899,192.125 669.079,195.106 670.259,198.325 671.439,201.817 672.620,205.578 673.800,209.566 674.980,213.696 676.160,217.852 677.341,221.892 678.521,225.677 679.701,229.078 680.881,231.990 682.062,234.363 683.242,236.206 684.422,237.595 685.602,238.667 686.783,239.621 687.963,240.695 689.143,242.127 690.323,244.133 691.504,246.881 692.684,250.450 693.864,254.815 695.044,259.853 696.225,265.353 697.405,271.031 698.585,276.584 699.765,281.727 700.946,286.237 702.126,289.973 703.306,292.892 704.486,295.056 705.667,296.592 706.847,297.669 708.027,298.466 709.207,299.138 710.388,299.792 711.568,300.469 712.748,301.159 713.928,301.798 715.109,302.281 716.289,302.496 717.469,302.339 718.649,301.743 719.830,300.685 721.010,299.208 722.190,297.416 722.190,428.334 721.010,430.260 719.830,431.752 718.649,432.712 717.469,433.110 716.289,432.998 715.109,432.485 713.928,431.721 712.748,430.861 711.568,430.038 710.388,429.331 709.207,428.735 708.027,428.165 706.847,427.464 705.667,426.421 704.486,424.808 703.306,422.426 702.126,419.132 700.946,414.867 699.765,409.678 698.585,403.719 697.405,397.232 696.225,390.524 695.044,383.934 693.864,377.785 692.684,372.343 691.504,367.788 690.323,364.193 689.143,361.519 687.963,359.624 686.783,358.292 685.602,357.266 684.422,356.282 683.242,355.099 682.062,353.534 680.881,351.470 679.701,348.862 678.521,345.729 677.341,342.149 676.160,338.228 674.980,334.084 673.800,329.833 672.620,325.573 671.439,321.382 670.259,317.308 669.079,313.382 667.899,309.618 666.718,306.010 665.538,302.540 664.358,299.181 663.178,295.897 661.997,292.643 660.817,289.375 659.637,286.052 658.457,282.638 657.276,279.109 656.096,275.462 654.916,271.711 653.736,267.892 652.555,264.059 651.375,260.274 650.195,256.593 649.015,253.052 647.834,249.671 646.654,246.458 645.474,243.415 644.294,240.555 643.113,237.917 641.933,235.558 640.753,233.548 639.573,231.965 638.392,230.892 637.212,230.401 636.032,230.558 634.852,231.414 633.671,232.992 632.491,235.263 631.311,238.134 630.131,241.442 628.950,244.962 627.770,248.431 626.590,251.603 625.410,254.284 624.229,256.351 623.049,257.768 621.869,258.571 620.689,258.852 619.508,258.726 618.328,258.324 617.148,257.781 615.968,257.221 614.787,256.752 613.607,256.464 612.427,256.413 611.247,256.619 610.066,257.064 608.886,257.706 607.706,258.478 606.526,259.304 605.345,260.110 604.165,260.832 602.985,261.417 601.805,261.821 600.624,262.008 599.444,261.951 598.264,261.620 597.084,260.987 595.903,260.032 594.723,258.746 593.543,257.133 592.363,255.219 591.182,253.063 590.002,250.738 588.822,248.335 587.642,245.956 586.461,243.691 585.281,241.609 584.101,239.741 582.921,238.078 581.740,236.557 580.560,235.058 579.380,233.426 578.200,231.477 577.019,229.022 575.839,225.894 574.659,221.980 573.479,217.240 572.298,211.715 571.118,205.539 569.938,198.928 568.758,192.158 567.577,185.531 566.397,179.348 565.217,173.879 564.037,169.320 562.857,165.790 561.676,163.322 560.496,161.866 559.316,161.309 558.136,161.496 556.955,162.272 555.775,163.492 554.595,165.054 553.415,166.915 552.234,169.086 551.054,171.615 549.874,174.567 548.694,178.002 547.513,181.940 546.333,186.341 545.153,191.106 543.973,196.083 542.792,201.082 541.612,205.905 540.432,210.374 539.252,214.359 538.071,217.778 536.891,220.618 535.711,222.920 534.531,224.762 533.350,226.234 532.170,227.427 530.990,228.409 529.810,229.213 528.629,229.842 527.449,230.280 526.269,230.506 525.089,230.507 523.908,230.292 522.728,229.908 521.548,229.424 520.368,228.924 519.187,228.505 518.007,228.261 516.827,228.266 515.647,228.568 514.466,229.186 513.286,230.098 512.106,231.234 510.926,232.479 509.745,233.672 508.565,234.618 507.385,235.105 506.205,234.936 505.024,233.955 503.844,232.071 502.664,229.284 501.484,225.692 500.303,221.479 499.123,216.899 497.943,212.240 496.763,207.789 495.582,203.780 494.402,200.364 493.222,197.606 492.042,195.483 490.861,193.917 489.681,192.808 488.501,192.066 487.321,191.631 486.140,191.476 484.960,191.613 483.780,192.082 482.600,192.928 481.419,194.190 480.239,195.882 479.059,197.982 477.879,200.424 476.698,203.113 475.518,205.935 474.338,208.780 473.158,211.557 471.977,214.217 470.797,216.761 469.617,219.228 468.437,221.697 467.256,224.276 466.076,227.083 464.896,230.233 463.716,233.834 462.535,237.981 461.355,242.730 460.175,248.100 458.995,254.079 457.814,260.617 456.634,267.641 455.454,275.069 454.274,282.834 453.093,290.884 451.913,299.189 450.733,307.747 449.553,316.569 448.372,325.665 447.192,335.032 446.012,344.640 444.832,354.420 443.651,364.252 442.471,373.981 441.291,383.422 440.111,392.382 438.930,400.684 437.750,408.192 436.570,414.831 435.390,420.585 434.209,425.503 433.029,429.692 431.849,433.292 430.669,436.460 429.488,439.350 428.308,442.097 427.128,444.793 425.948,447.478 424.767,450.143 423.587,452.726 422.407,455.127 421.227,457.220 420.046,458.884 418.866,460.005 417.686,460.489 416.506,460.273 415.325,459.314 414.145,457.582 412.965,455.053 411.785,451.710 410.605,447.539 409.424,442.531 408.244,436.706 407.064,430.121 405.884,422.878 404.703,415.125 403.523,407.056 402.343,398.894 401.163,390.857 399.982,383.146 398.802,375.920 397.622,369.280 396.442,363.271 395.261,357.888 394.081,353.097 392.901,348.849 391.721,345.097 390.540,341.817 389.360,339.007 388.180,336.689 387.000,334.903 385.819,333.700 384.639,333.124 383.459,333.197 382.279,333.914 381.098,335.232 379.918,337.065 378.738,339.290 377.558,341.758 376.377,344.317 375.197,346.825 374.017,349.176 372.837,351.324 371.656,353.274 370.476,355.085 369.296,356.851 368.116,358.677 366.935,360.638 365.755,362.765 364.575,365.027 363.395,367.327 362.214,369.516 361.034,371.415 359.854,372.850 358.674,373.672 357.493,373.786 356.313,373.164 355.133,371.847 353.953,369.932 352.772,367.554 351.592,364.869 350.412,362.020 349.232,359.116 348.051,356.226 346.871,353.365 345.691,350.501 344.511,347.568 343.330,344.497 342.150,341.237 340.970,337.770 339.790,334.143 338.609,330.466 337.429,326.905 336.249,323.666 335.069,320.968 333.888,319.023 332.708,317.990 331.528,317.960 330.348,318.942 329.167,320.858 327.987,323.543 326.807,326.771 325.627,330.290 324.446,333.842 323.266,337.198 322.086,340.192 320.906,342.733 319.725,344.806 318.545,346.469 317.365,347.842 316.185,349.076 315.004,350.323 313.824,351.722 312.644,353.373 311.464,355.330 310.283,357.590 309.103,360.106 307.923,362.796 306.743,365.542 305.562,368.208 304.382,370.656 303.202,372.747 302.022,374.353 300.841,375.363 299.661,375.697 298.481,375.296 297.301,374.132 296.120,372.222 294.940,369.620 293.760,366.430 292.580,362.796 291.399,358.912 290.219,354.994 289.039,351.267 287.859,347.951 286.678,345.230 285.498,343.237 284.318,342.039 283.138,341.634 281.957,341.955 280.777,342.877 279.597,344.244 278.417,345.896 277.236,347.681 276.056,349.477 274.876,351.200 273.696,352.800 272.515,354.245 271.335,355.515 270.155,356.595 268.975,357.468 267.794,358.117 266.614,358.532 265.434,358.723 264.254,358.713 263.073,358.540 261.893,358.261 260.713,357.938 259.533,357.627 258.353,357.361 257.172,357.153 255.992,356.970 254.812,356.731 253.632,356.320 252.451,355.594 251.271,354.406 250.091,352.635 248.911,350.220 247.730,347.182 246.550,343.629 245.370,339.758 244.190,335.840 243.009,332.180 241.829,329.074 240.649,326.774 239.469,325.454 238.288,325.164 237.108,325.837 235.928,327.294 234.748,329.267 233.567,331.434 232.387,333.464 231.207,335.072 230.027,336.034 228.846,336.225 227.666,335.631 226.486,334.344 225.306,332.541 224.125,330.461 222.945,328.373 221.765,326.536 220.585,325.164 219.404,324.415 218.224,324.372 217.044,325.044 215.864,326.372 214.683,328.249 213.503,330.535 212.323,333.056 211.143,335.626 209.962,338.061 208.782,340.176 207.602,341.807 206.422,342.825 205.241,343.159 204.061,342.792 202.881,341.776 201.701,340.231 200.520,338.320 199.340,336.227 198.160,334.123 196.980,332.152 195.799,330.401 194.619,328.902 193.439,327.648 192.259,326.605 191.078,325.719 189.898,324.939 188.718,324.227 187.538,323.557 186.357,322.910 185.177,322.285 183.997,321.694 182.817,321.152 181.636,320.686 180.456,320.333 179.276,320.137 178.096,320.132 176.915,320.350 175.735,320.804 174.555,321.487 173.375,322.373 172.194,323.413 171.014,324.549 169.834,325.701 168.654,326.774 167.473,327.676 166.293,328.317 165.113,328.628 163.933,328.580 162.752,328.200 161.572,327.565 160.392,326.794 159.212,326.040 158.031,325.462 156.851,325.195 155.671,325.325 154.491,325.877 153.310,326.802 152.130,327.969 150.950,329.199 149.770,330.280 148.589,330.994 147.409,331.152 146.229,330.620 145.049,329.337 143.868,327.317 142.688,324.638 141.508,321.425 140.328,317.818 139.147,313.960 137.967,310.004 136.787,306.112 135.607,302.451 134.426,299.178 133.246,296.432 132.066,294.317 130.886,292.887 129.705,292.143 128.525,292.040 127.345,292.490 126.165,293.373 124.984,294.562 123.804,295.936 122.624,297.386 121.444,298.827 120.263,300.198 119.083,301.461 117.903,302.590 116.723,303.579 115.542,304.445 114.362,305.216 113.182,305.942 112.002,306.682 110.821,307.504 109.641,308.466 108.461,309.612 107.281,310.976 106.100,312.566 104.920,314.377 103.740,316.381 "/>
</g>
<g id="ID000006" clip-path="url(#ID000001)" >
      <polygon fill="#f4d5d5" fill-opacity="1.00" stroke="#f6a0a0" stroke-width="0.5pt" stroke-opacity="1.00" stroke-dasharray="none" points="103.740,199.881 104.920,201.818 106.100,204.083 107.281,206.611 108.461,209.330 109.641,212.164 110.821,215.040 112.002,217.898 113.182,220.676 114.362,223.321 115.542,225.795 116.723,228.067 117.903,230.117 119.083,231.940 120.263,233.552 121.444,234.990 122.624,236.306 123.804,237.580 124.984,238.903 126.165,240.359 127.345,242.019 128.525,243.922 129.705,246.075 130.886,248.435 132.066,250.925 133.246,253.444 134.426,255.876 135.607,258.113 136.787,260.075 137.967,261.733 139.147,263.107 140.328,264.269 141.508,265.332 142.688,266.426 143.868,267.664 145.049,269.129 146.229,270.856 147.409,272.828 148.589,274.981 149.770,277.233 150.950,279.503 152.130,281.728 153.310,283.873 154.491,285.935 155.671,287.929 156.851,289.876 158.031,291.799 159.212,293.717 160.392,295.640 161.572,297.569 162.752,299.499 163.933,301.419 165.113,303.303 166.293,305.115 167.473,306.811 168.654,308.341 169.834,309.654 171.014,310.709 172.194,311.490 173.375,311.998 174.555,312.262 175.735,312.329 176.915,312.245 178.096,312.042 179.276,311.731 180.456,311.304 181.636,310.737 182.817,309.994 183.997,309.048 185.177,307.884 186.357,306.500 187.538,304.908 188.718,303.137 189.898,301.221 191.078,299.187 192.259,297.061 193.439,294.866 194.619,292.620 195.799,290.348 196.980,288.082 198.160,285.874 199.340,283.775 200.520,281.848 201.701,280.160 202.881,278.772 204.061,277.733 205.241,277.070 206.422,276.791 207.602,276.870 208.782,277.247 209.962,277.847 211.143,278.582 212.323,279.371 213.503,280.156 214.683,280.921 215.864,281.690 217.044,282.516 218.224,283.478 219.404,284.656 220.585,286.107 221.765,287.853 222.945,289.868 224.125,292.081 225.306,294.370 226.486,296.595 227.666,298.607 228.846,300.271 230.027,301.484 231.207,302.182 232.387,302.356 233.567,302.030 234.748,301.261 235.928,300.138 237.108,298.753 238.288,297.199 239.469,295.556 240.649,293.896 241.829,292.261 243.009,290.673 244.190,289.141 245.370,287.659 246.550,286.209 247.730,284.763 248.911,283.296 250.091,281.780 251.271,280.189 252.451,278.514 253.632,276.763 254.812,274.966 255.992,273.175 257.172,271.460 258.353,269.908 259.533,268.602 260.713,267.625 261.893,267.056 263.073,266.962 264.254,267.389 265.434,268.364 266.614,269.897 267.794,271.964 268.975,274.518 270.155,277.501 271.335,280.838 272.515,284.453 273.696,288.269 274.876,292.224 276.056,296.259 277.236,300.318 278.417,304.352 279.597,308.306 280.777,312.116 281.957,315.701 283.138,318.970 284.318,321.819 285.498,324.132 286.678,325.806 287.859,326.765 289.039,326.974 290.219,326.461 291.399,325.320 292.580,323.721 293.760,321.878 294.940,320.042 296.120,318.472 297.301,317.392 298.481,316.974 299.661,317.306 300.841,318.392 302.022,320.142 303.202,322.391 304.382,324.932 305.562,327.541 306.743,330.014 307.923,332.189 309.103,333.971 310.283,335.329 311.464,336.287 312.644,336.924 313.824,337.349 315.004,337.694 316.185,338.094 317.365,338.680 318.545,339.561 319.725,340.798 320.906,342.410 322.086,344.362 323.266,346.570 324.446,348.915 325.627,351.263 326.807,353.493 327.987,355.502 329.167,357.226 330.348,358.643 331.528,359.760 332.708,360.605 333.888,361.207 335.069,361.598 336.249,361.796 337.429,361.809 338.609,361.647 339.790,361.321 340.970,360.845 342.150,360.244 343.330,359.548 344.511,358.798 345.691,358.025 346.871,357.266 348.051,356.545 349.232,355.872 350.412,355.233 351.592,354.598 352.772,353.923 353.953,353.145 355.133,352.212 356.313,351.091 357.493,349.768 358.674,348.264 359.854,346.621 361.034,344.910 362.214,343.198 363.395,341.545 364.575,339.995 365.755,338.556 366.935,337.210 368.116,335.909 369.296,334.595 370.476,333.212 371.656,331.715 372.837,330.098 374.017,328.395 375.197,326.681 376.377,325.063 377.558,323.680 378.738,322.677 379.918,322.183 381.098,322.311 382.279,323.137 383.459,324.696 384.639,326.974 385.819,329.920 387.000,333.449 388.180,337.439 389.360,341.751 390.540,346.239 391.721,350.748 392.901,355.131 394.081,359.245 395.261,362.971 396.442,366.203 397.622,368.861 398.802,370.903 399.982,372.317 401.163,373.129 402.343,373.397 403.523,373.207 404.703,372.657 405.884,371.841 407.064,370.847 408.244,369.742 409.424,368.565 410.605,367.329 411.785,366.027 412.965,364.638 414.145,363.121 415.325,361.443 416.506,359.576 417.686,357.505 418.866,355.228 420.046,352.762 421.227,350.140 422.407,347.393 423.587,344.556 424.767,341.656 425.948,338.708 427.128,335.708 428.308,332.630 429.488,329.441 430.669,326.091 431.849,322.525 433.029,318.706 434.209,314.606 435.390,310.228 436.570,305.597 437.750,300.773 438.930,295.834 440.111,290.865 441.291,285.963 442.471,281.214 443.651,276.695 444.832,272.460 446.012,268.544 447.192,264.959 448.372,261.689 449.553,258.704 450.733,255.962 451.913,253.410 453.093,250.996 454.274,248.666 455.454,246.375 456.634,244.069 457.814,241.692 458.995,239.182 460.175,236.466 461.355,233.465 462.535,230.100 463.716,226.312 464.896,222.065 466.076,217.354 467.256,212.233 468.437,206.799 469.617,201.199 470.797,195.616 471.977,190.259 473.158,185.339 474.338,181.040 475.518,177.515 476.698,174.862 477.879,173.120 479.059,172.269 480.239,172.237 481.419,172.913 482.600,174.143 483.780,175.756 484.960,177.575 486.140,179.428 487.321,181.167 488.501,182.674 489.681,183.881 490.861,184.750 492.042,185.276 493.222,185.479 494.402,185.381 495.582,185.005 496.763,184.357 497.943,183.446 499.123,182.274 500.303,180.852 501.484,179.216 502.664,177.426 503.844,175.564 505.024,173.728 506.205,172.020 507.385,170.531 508.565,169.320 509.745,168.412 510.926,167.792 512.106,167.397 513.286,167.124 514.466,166.845 515.647,166.420 516.827,165.709 518.007,164.597 519.187,163.017 520.368,160.951 521.548,158.440 522.728,155.570 523.908,152.469 525.089,149.266 526.269,146.076 527.449,142.982 528.629,140.020 529.810,137.173 530.990,134.381 532.170,131.566 533.350,128.649 534.531,125.565 535.711,122.302 536.891,118.897 538.071,115.440 539.252,112.067 540.432,108.941 541.612,106.234 542.792,104.085 543.973,102.590 545.153,101.781 546.333,101.609 547.513,101.955 548.694,102.641 549.874,103.465 551.054,104.210 552.234,104.685 553.415,104.743 554.595,104.286 555.775,103.268 556.955,101.691 558.136,99.602 559.316,97.077 560.496,94.215 561.676,91.134 562.857,87.961 564.037,84.818 565.217,81.809 566.397,79.020 567.577,76.496 568.758,74.236 569.938,72.210 571.118,70.355 572.298,68.589 573.479,66.828 574.659,65.002 575.839,63.067 577.019,61.002 578.200,58.831 579.380,56.613 580.560,54.437 581.740,52.415 582.921,50.662 584.101,49.295 585.281,48.400 586.461,48.030 587.642,48.205 588.822,48.897 590.002,50.043 591.182,51.552 592.363,53.320 593.543,55.239 594.723,57.211 595.903,59.170 597.084,61.073 598.264,62.912 599.444,64.703 600.624,66.479 601.805,68.280 602.985,70.128 604.165,72.035 605.345,73.989 606.526,75.955 607.706,77.883 608.886,79.726 610.066,81.452 611.247,83.045 612.427,84.530 613.607,85.968 614.787,87.445 615.968,89.058 617.148,90.897 618.328,93.031 619.508,95.476 620.689,98.196 621.869,101.110 623.049,104.094 624.229,107.006 625.410,109.703 626.590,112.073 627.770,114.044 628.950,115.595 630.131,116.770 631.311,117.668 632.491,118.430 633.671,119.219 634.852,120.200 636.032,121.513 637.212,123.248 638.392,125.444 639.573,128.087 640.753,131.109 641.933,134.409 643.113,137.866 644.294,141.360 645.474,144.771 646.654,147.996 647.834,150.957 649.015,153.595 650.195,155.877 651.375,157.790 652.555,159.356 653.736,160.611 654.916,161.612 656.096,162.443 657.276,163.191 658.457,163.948 659.637,164.789 660.817,165.775 661.997,166.928 663.178,168.231 664.358,169.638 665.538,171.071 666.718,172.439 667.899,173.647 669.079,174.614 670.259,175.288 671.439,175.634 672.620,175.660 673.800,175.394 674.980,174.880 676.160,174.166 677.341,173.292 678.521,172.290 679.701,171.166 680.881,169.912 682.062,168.516 683.242,166.952 684.422,165.200 685.602,163.245 686.783,161.085 687.963,158.732 689.143,156.213 690.323,153.584 691.504,150.921 692.684,148.317 693.864,145.874 695.044,143.692 696.225,141.851 697.405,140.390 698.585,139.311 699.765,138.568 700.946,138.072 702.126,137.705 703.306,137.337 704.486,136.847 705.667,136.132 706.847,135.130 708.027,133.831 709.207,132.274 710.388,130.544 711.568,128.763 712.748,127.077 713.928,125.616 715.109,124.488 716.289,123.762 717.469,123.446 718.649,123.494 719.830,123.810 721.010,124.272 722.190,124.739 722.190,242.439 721.010,241.230 719.830,240.010 718.649,238.882 717.469,237.944 716.289,237.281 715.109,236.947 713.928,236.957 712.748,237.280 711.568,237.851 710.388,238.580 709.207,239.356 708.027,240.079 706.847,240.671 705.667,241.093 704.486,241.342 703.306,241.461 702.126,241.528 700.946,241.635 699.765,241.872 698.585,242.321 697.405,243.034 696.225,244.029 695.044,245.288 693.864,246.775 692.684,248.427 691.504,250.169 690.323,251.938 689.143,253.675 687.963,255.341 686.783,256.908 685.602,258.372 684.422,259.738 683.242,261.009 682.062,262.189 680.881,263.274 679.701,264.244 678.521,265.060 677.341,265.679 676.160,266.054 674.980,266.135 673.800,265.891 672.620,265.312 671.439,264.412 670.259,263.224 669.079,261.808 667.899,260.242 666.718,258.611 665.538,257.001 664.358,255.496 663.178,254.162 661.997,253.038 660.817,252.127 659.637,251.408 658.457,250.827 657.276,250.304 656.096,249.754 654.916,249.092 653.736,248.238 652.555,247.125 651.375,245.708 650.195,243.960 649.015,241.869 647.834,239.447 646.654,236.730 645.474,233.772 644.294,230.645 643.113,227.442 641.933,224.273 640.753,221.240 639.573,218.446 638.392,215.976 637.212,213.884 636.032,212.186 634.852,210.851 633.671,209.812 632.491,208.960 631.311,208.159 630.131,207.274 628.950,206.184 627.770,204.803 626.590,203.091 625.410,201.072 624.229,198.818 623.049,196.435 621.869,194.053 620.689,191.797 619.508,189.764 618.328,188.008 617.148,186.542 615.968,185.336 614.787,184.314 613.607,183.385 612.427,182.455 611.247,181.439 610.066,180.273 608.886,178.927 607.706,177.408 606.526,175.743 605.345,173.978 604.165,172.167 602.985,170.353 601.805,168.557 600.624,166.779 599.444,165.005 598.264,163.205 597.084,161.352 595.903,159.445 594.723,157.514 593.543,155.622 592.363,153.863 591.182,152.358 590.002,151.228 588.822,150.576 587.642,150.473 586.461,150.948 585.281,151.972 584.101,153.466 582.921,155.310 581.740,157.362 580.560,159.463 579.380,161.471 578.200,163.275 577.019,164.804 575.839,166.037 574.659,167.005 573.479,167.793 572.298,168.513 571.118,169.296 569.938,170.280 568.758,171.580 567.577,173.273 566.397,175.386 565.217,177.898 564.037,180.730 562.857,183.752 561.676,186.808 560.496,189.722 559.316,192.319 558.136,194.439 556.955,195.969 555.775,196.850 554.595,197.074 553.415,196.705 552.234,195.866 551.054,194.721 549.874,193.463 548.694,192.296 547.513,191.421 546.333,191.012 545.153,191.207 543.973,192.109 542.792,193.759 541.612,196.137 540.432,199.161 539.252,202.698 538.071,206.569 536.891,210.579 535.711,214.551 534.531,218.345 533.350,221.879 532.170,225.129 530.990,228.135 529.810,230.975 528.629,233.736 527.449,236.503 526.269,239.329 525.089,242.218 523.908,245.120 522.728,247.944 521.548,250.576 520.368,252.890 519.187,254.788 518.007,256.224 516.827,257.207 515.647,257.804 514.466,258.133 513.286,258.345 512.106,258.582 510.926,258.965 509.745,259.578 508.565,260.449 507.385,261.555 506.205,262.837 505.024,264.217 503.844,265.612 502.664,266.946 501.484,268.172 500.303,269.261 499.123,270.203 497.943,270.993 496.763,271.634 495.582,272.121 494.402,272.431 493.222,272.535 492.042,272.397 490.861,271.971 489.681,271.215 488.501,270.106 487.321,268.660 486.140,266.931 484.960,265.038 483.780,263.165 482.600,261.547 481.419,260.446 480.239,260.128 479.059,260.824 477.879,262.690 476.698,265.783 475.518,270.062 474.338,275.382 473.158,281.513 471.977,288.176 470.797,295.078 469.617,301.934 468.437,308.503 467.256,314.610 466.076,320.155 464.896,325.113 463.716,329.519 462.535,333.467 461.355,337.077 460.175,340.473 458.995,343.780 457.814,347.105 456.634,350.528 455.454,354.101 454.274,357.852 453.093,361.787 451.913,365.890 450.733,370.139 449.553,374.516 448.372,379.005 447.192,383.597 446.012,388.291 444.832,393.092 443.651,398.001 442.471,403.010 441.291,408.110 440.111,413.278 438.930,418.475 437.750,423.648 436.570,428.742 435.390,433.689 434.209,438.416 433.029,442.859 431.849,446.972 430.669,450.721 429.488,454.097 428.308,457.120 427.128,459.829 425.948,462.271 424.767,464.502 423.587,466.579 422.407,468.544 421.227,470.425 420.046,472.240 418.866,473.997 417.686,475.691 416.506,477.316 415.325,478.867 414.145,480.341 412.965,481.728 411.785,483.012 410.605,484.176 409.424,485.182 408.244,485.981 407.064,486.516 405.884,486.726 404.703,486.544 403.523,485.909 402.343,484.773 401.163,483.102 399.982,480.870 398.802,478.076 397.622,474.737 396.442,470.887 395.261,466.578 394.081,461.886 392.901,456.908 391.721,451.754 390.540,446.553 389.360,441.449 388.180,436.589 387.000,432.113 385.819,428.152 384.639,424.818 383.459,422.189 382.279,420.312 381.098,419.201 379.918,418.831 378.738,419.136 377.558,420.022 376.377,421.373 375.197,423.054 374.017,424.930 372.837,426.886 371.656,428.832 370.476,430.709 369.296,432.492 368.116,434.194 366.935,435.841 365.755,437.463 364.575,439.085 363.395,440.715 362.214,442.334 361.034,443.898 359.854,445.352 358.674,446.639 357.493,447.706 356.313,448.531 355.133,449.125 353.953,449.528 352.772,449.807 351.592,450.044 350.412,450.328 349.232,450.729 348.051,451.293 346.871,452.042 345.691,452.962 344.511,454.006 343.330,455.102 342.150,456.170 340.970,457.128 339.790,457.896 338.609,458.420 337.429,458.663 336.249,458.605 335.069,458.239 333.888,457.574 332.708,456.631 331.528,455.431 330.348,454.008 329.167,452.401 327.987,450.644 326.807,448.762 325.627,446.774 324.446,444.701 323.266,442.563 322.086,440.399 320.906,438.277 319.725,436.282 318.545,434.511 317.365,433.050 316.185,431.962 315.004,431.247 313.824,430.843 312.644,430.628 311.464,430.436 310.283,430.077 309.103,429.380 307.923,428.226 306.743,426.559 305.562,424.403 304.382,421.866 303.202,419.125 302.022,416.396 300.841,413.910 299.661,411.887 298.481,410.494 297.301,409.824 296.120,409.892 294.940,410.627 293.760,411.887 292.580,413.473 291.399,415.162 290.219,416.730 289.039,417.965 287.859,418.695 286.678,418.800 285.498,418.205 284.318,416.885 283.138,414.861 281.957,412.189 280.777,408.947 279.597,405.225 278.417,401.125 277.236,396.752 276.056,392.205 274.876,387.580 273.696,382.978 272.515,378.489 271.335,374.193 270.155,370.171 268.975,366.491 267.794,363.207 266.614,360.354 265.434,357.949 264.254,355.988 263.073,354.436 261.893,353.243 260.713,352.349 259.533,351.685 258.353,351.187 257.172,350.806 255.992,350.512 254.812,350.282 253.632,350.106 252.451,349.977 251.271,349.878 250.091,349.782 248.911,349.657 247.730,349.480 246.550,349.236 245.370,348.931 244.190,348.605 243.009,348.316 241.829,348.139 240.649,348.142 239.469,348.385 238.288,348.896 237.108,349.660 235.928,350.631 234.748,351.726 233.567,352.845 232.387,353.875 231.207,354.720 230.027,355.311 228.846,355.602 227.666,355.588 226.486,355.294 225.306,354.763 224.125,354.045 222.945,353.187 221.765,352.232 220.585,351.203 219.404,350.112 218.224,348.970 217.044,347.787 215.864,346.574 214.683,345.346 213.503,344.128 212.323,342.941 211.143,341.802 209.962,340.731 208.782,339.744 207.602,338.851 206.422,338.056 205.241,337.360 204.061,336.759 202.881,336.236 201.701,335.784 200.520,335.398 199.340,335.085 198.160,334.865 196.980,334.774 195.799,334.855 194.619,335.140 193.439,335.651 192.259,336.391 191.078,337.334 189.898,338.429 188.718,339.608 187.538,340.799 186.357,341.918 185.177,342.895 183.997,343.678 182.817,344.234 181.636,344.554 180.456,344.650 179.276,344.556 178.096,344.309 176.915,343.951 175.735,343.525 174.555,343.060 173.375,342.567 172.194,342.029 171.014,341.407 169.834,340.634 168.654,339.632 167.473,338.339 166.293,336.717 165.113,334.767 163.933,332.522 162.752,330.047 161.572,327.422 160.392,324.718 159.212,321.992 158.031,319.287 156.851,316.619 155.671,313.997 154.491,311.428 153.310,308.938 152.130,306.561 150.950,304.346 149.770,302.346 148.589,300.607 147.409,299.149 146.229,297.968 145.049,297.040 143.868,296.310 142.688,295.703 141.508,295.131 140.328,294.499 139.147,293.713 137.967,292.687 136.787,291.367 135.607,289.733 134.426,287.811 133.246,285.682 132.066,283.473 130.886,281.339 129.705,279.434 128.525,277.886 127.345,276.780 126.165,276.127 124.984,275.880 123.804,275.945 122.624,276.195 121.444,276.493 120.263,276.714 119.083,276.768 117.903,276.594 116.723,276.170 115.542,275.511 114.362,274.646 113.182,273.614 112.002,272.444 110.821,271.162 109.641,269.786 108.461,268.328 107.281,266.813 106.100,265.282 104.920,263.788 103.740,262.396 "/>
</g>
<g id="ID000007" clip-path="url(#ID000001)" >
      <polyline fill="none" stroke="#ff0000" stroke-width="2.0pt" stroke-dasharray="none" points="103.740,231.139 104.920,232.803 106.100,234.682 107.281,236.712 108.461,238.829 109.641,240.975 110.821,243.101 112.002,245.171 113.182,247.145 114.362,248.984 115.542,250.653 116.723,252.119 117.903,253.356 119.083,254.354 120.263,255.133 121.444,255.741 122.624,256.251 123.804,256.763 124.984,257.391 126.165,258.243 127.345,259.399 128.525,260.904 129.705,262.754 130.886,264.887 132.066,267.199 133.246,269.563 134.426,271.844 135.607,273.923 136.787,275.721 137.967,277.210 139.147,278.410 140.328,279.384 141.508,280.231 142.688,281.064 143.868,281.987 145.049,283.084 146.229,284.412 147.409,285.989 148.589,287.794 149.770,289.789 150.950,291.924 152.130,294.145 153.310,296.406 154.491,298.681 155.671,300.963 156.851,303.248 158.031,305.543 159.212,307.855 160.392,310.179 161.572,312.495 162.752,314.773 163.933,316.971 165.113,319.035 166.293,320.916 167.473,322.575 168.654,323.987 169.834,325.144 171.014,326.058 172.194,326.759 173.375,327.283 174.555,327.661 175.735,327.927 176.915,328.098 178.096,328.176 179.276,328.143 180.456,327.977 181.636,327.646 182.817,327.114 183.997,326.363 185.177,325.390 186.357,324.209 187.538,322.853 188.718,321.373 189.898,319.825 191.078,318.261 192.259,316.726 193.439,315.259 194.619,313.880 195.799,312.601 196.980,311.428 198.160,310.370 199.340,309.430 200.520,308.623 201.701,307.972 202.881,307.504 204.061,307.246 205.241,307.215 206.422,307.423 207.602,307.861 208.782,308.496 209.962,309.289 211.143,310.192 212.323,311.156 213.503,312.142 214.683,313.134 215.864,314.132 217.044,315.152 218.224,316.224 219.404,317.384 220.585,318.655 221.765,320.043 222.945,321.527 224.125,323.063 225.306,324.567 226.486,325.944 227.666,327.097 228.846,327.937 230.027,328.397 231.207,328.451 232.387,328.115 233.567,327.437 234.748,326.494 235.928,325.384 237.108,324.206 238.288,323.047 239.469,321.971 240.649,321.019 241.829,320.200 243.009,319.494 244.190,318.873 245.370,318.295 246.550,317.722 247.730,317.122 248.911,316.476 250.091,315.781 251.271,315.033 252.451,314.245 253.632,313.434 254.812,312.624 255.992,311.843 257.172,311.133 258.353,310.548 259.533,310.144 260.713,309.987 261.893,310.150 263.073,310.699 264.254,311.688 265.434,313.157 266.614,315.125 267.794,317.586 268.975,320.505 270.155,323.836 271.335,327.516 272.515,331.471 273.696,335.624 274.876,339.902 276.056,344.232 277.236,348.535 278.417,352.739 279.597,356.765 280.777,360.531 281.957,363.945 283.138,366.915 284.318,369.352 285.498,371.169 286.678,372.303 287.859,372.730 289.039,372.470 290.219,371.595 291.399,370.241 292.580,368.597 293.760,366.883 294.940,365.335 296.120,364.182 297.301,363.608 298.481,363.734 299.661,364.596 300.841,366.151 302.022,368.269 303.202,370.758 304.382,373.399 305.562,375.972 306.743,378.287 307.923,380.207 309.103,381.676 310.283,382.703 311.464,383.361 312.644,383.776 313.824,384.096 315.004,384.470 316.185,385.028 317.365,385.865 318.545,387.036 319.725,388.540 320.906,390.343 322.086,392.381 323.266,394.567 324.446,396.808 325.627,399.018 326.807,401.127 327.987,403.073 329.167,404.814 330.348,406.325 331.528,407.595 332.708,408.618 333.888,409.391 335.069,409.918 336.249,410.201 337.429,410.236 338.609,410.033 339.790,409.608 340.970,408.987 342.150,408.207 343.330,407.325 344.511,406.402 345.691,405.494 346.871,404.654 348.051,403.919 349.232,403.300 350.412,402.781 351.592,402.321 352.772,401.865 353.953,401.336 355.133,400.669 356.313,399.811 357.493,398.737 358.674,397.451 359.854,395.986 361.034,394.404 362.214,392.766 363.395,391.130 364.575,389.540 365.755,388.010 366.935,386.526 368.116,385.051 369.296,383.544 370.476,381.960 371.656,380.273 372.837,378.492 374.017,376.663 375.197,374.867 376.377,373.218 377.558,371.851 378.738,370.906 379.918,370.507 381.098,370.756 382.279,371.725 383.459,373.442 384.639,375.896 385.819,379.036 387.000,382.781 388.180,387.014 389.360,391.600 390.540,396.396 391.721,401.251 392.901,406.020 394.081,410.566 395.261,414.775 396.442,418.545 397.622,421.799 398.802,424.489 399.982,426.593 401.163,428.116 402.343,429.085 403.523,429.558 404.703,429.601 405.884,429.284 407.064,428.682 408.244,427.861 409.424,426.873 410.605,425.752 411.785,424.520 412.965,423.183 414.145,421.731 415.325,420.155 416.506,418.446 417.686,416.598 418.866,414.613 420.046,412.501 421.227,410.283 422.407,407.969 423.587,405.567 424.767,403.079 425.948,400.490 427.128,397.768 428.308,394.875 429.488,391.769 430.669,388.406 431.849,384.748 433.029,380.782 434.209,376.511 435.390,371.959 436.570,367.170 437.750,362.211 438.930,357.155 440.111,352.072 441.291,347.036 442.471,342.112 443.651,337.348 444.832,332.776 446.012,328.417 447.192,324.278 448.372,320.347 449.553,316.610 450.733,313.050 451.913,309.650 453.093,306.391 454.274,303.259 455.454,300.238 456.634,297.299 457.814,294.398 458.995,291.481 460.175,288.470 461.355,285.271 462.535,281.784 463.716,277.916 464.896,273.589 466.076,268.755 467.256,263.421 468.437,257.651 469.617,251.567 470.797,245.347 471.977,239.217 473.158,233.426 474.338,228.211 475.518,223.789 476.698,220.323 477.879,217.905 479.059,216.546 480.239,216.182 481.419,216.679 482.600,217.845 483.780,219.461 484.960,221.307 486.140,223.180 487.321,224.913 488.501,226.390 489.681,227.548 490.861,228.361 492.042,228.837 493.222,229.007 494.402,228.906 495.582,228.563 496.763,227.996 497.943,227.219 499.123,226.239 500.303,225.057 501.484,223.694 502.664,222.186 503.844,220.588 505.024,218.973 506.205,217.428 507.385,216.043 508.565,214.884 509.745,213.995 510.926,213.379 512.106,212.989 513.286,212.735 514.466,212.489 515.647,212.112 516.827,211.458 518.007,210.410 519.187,208.902 520.368,206.920 521.548,204.508 522.728,201.757 523.908,198.794 525.089,195.742 526.269,192.702 527.449,189.743 528.629,186.878 529.810,184.074 530.990,181.258 532.170,178.348 533.350,175.264 534.531,171.955 535.711,168.426 536.891,164.738 538.071,161.005 539.252,157.382 540.432,154.051 541.612,151.186 542.792,148.922 543.973,147.350 545.153,146.494 546.333,146.311 547.513,146.688 548.694,147.469 549.874,148.464 551.054,149.465 552.234,150.275 553.415,150.724 554.595,150.680 555.775,150.059 556.955,148.830 558.136,147.020 559.316,144.698 560.496,141.968 561.676,138.971 562.857,135.857 564.037,132.774 565.217,129.854 566.397,127.203 567.577,124.884 568.758,122.908 569.938,121.245 571.118,119.825 572.298,118.551 573.479,117.311 574.659,116.004 575.839,114.552 577.019,112.903 578.200,111.053 579.380,109.042 580.560,106.950 581.740,104.888 582.921,102.986 584.101,101.380 585.281,100.186 586.461,99.489 587.642,99.339 588.822,99.736 590.002,100.636 591.182,101.955 592.363,103.591 593.543,105.431 594.723,107.363 595.903,109.307 597.084,111.212 598.264,113.059 599.444,114.854 600.624,116.629 601.805,118.418 602.985,120.240 604.165,122.101 605.345,123.984 606.526,125.849 607.706,127.646 608.886,129.326 610.066,130.862 611.247,132.242 612.427,133.493 613.607,134.677 614.787,135.879 615.968,137.197 617.148,138.720 618.328,140.520 619.508,142.620 620.689,144.997 621.869,147.582 623.049,150.265 624.229,152.912 625.410,155.387 626.590,157.582 627.770,159.424 628.950,160.890 630.131,162.022 631.311,162.913 632.491,163.695 633.671,164.515 634.852,165.525 636.032,166.849 637.212,168.566 638.392,170.710 639.573,173.266 640.753,176.175 641.933,179.341 643.113,182.654 644.294,186.003 645.474,189.271 646.654,192.363 647.834,195.202 649.015,197.732 650.195,199.918 651.375,201.749 652.555,203.241 653.736,204.425 654.916,205.352 656.096,206.098 657.276,206.748 658.457,207.387 659.637,208.099 660.817,208.951 661.997,209.983 663.178,211.197 664.358,212.567 665.538,214.036 666.718,215.525 667.899,216.944 669.079,218.211 670.259,219.256 671.439,220.023 672.620,220.486 673.800,220.642 674.980,220.508 676.160,220.110 677.341,219.486 678.521,218.675 679.701,217.705 680.881,216.593 682.062,215.352 683.242,213.980 684.422,212.469 685.602,210.808 686.783,208.997 687.963,207.036 689.143,204.944 690.323,202.761 691.504,200.545 692.684,198.372 693.864,196.324 695.044,194.490 696.225,192.940 697.405,191.712 698.585,190.816 699.765,190.220 700.946,189.854 702.126,189.617 703.306,189.399 704.486,189.095 705.667,188.612 706.847,187.901 708.027,186.955 709.207,185.815 710.388,184.562 711.568,183.307 712.748,182.178 713.928,181.287 715.109,180.718 716.289,180.521 717.469,180.695 718.649,181.188 719.830,181.910 721.010,182.751 722.190,183.589 "/>
<g>
</g>
</g>
<g id="ID000008" clip-path="url(#ID000001)" >
      <polyline fill="none" stroke="#0000ff" stroke-width="2.0pt" stroke-dasharray="none" points="103.740,281.660 104.920,279.332 106.100,277.237 107.281,275.408 108.461,273.860 109.641,272.584 110.821,271.547 112.002,270.707 113.182,270.010 114.362,269.389 115.542,268.783 116.723,268.136 117.903,267.405 119.083,266.559 120.263,265.588 121.444,264.509 122.624,263.363 123.804,262.220 124.984,261.180 126.165,260.372 127.345,259.935 128.525,260.014 129.705,260.747 130.886,262.240 132.066,264.556 133.246,267.701 134.426,271.620 135.607,276.188 136.787,281.216 137.967,286.471 139.147,291.694 140.328,296.616 141.508,300.995 142.688,304.636 143.868,307.410 145.049,309.261 146.229,310.216 147.409,310.380 148.589,309.912 149.770,309.016 150.950,307.916 152.130,306.829 153.310,305.938 154.491,305.383 155.671,305.246 156.851,305.539 158.031,306.213 159.212,307.168 160.392,308.268 161.572,309.355 162.752,310.271 163.933,310.881 165.113,311.081 166.293,310.805 167.473,310.041 168.654,308.824 169.834,307.225 171.014,305.342 172.194,303.299 173.375,301.225 174.555,299.238 175.735,297.446 176.915,295.936 178.096,294.763 179.276,293.946 180.456,293.474 181.636,293.314 182.817,293.407 183.997,293.687 185.177,294.099 186.357,294.597 187.538,295.157 188.718,295.778 189.898,296.487 191.078,297.318 192.259,298.310 193.439,299.496 194.619,300.885 195.799,302.450 196.980,304.125 198.160,305.813 199.340,307.385 200.520,308.697 201.701,309.613 202.881,310.019 204.061,309.836 205.241,309.029 206.422,307.615 207.602,305.657 208.782,303.254 209.962,300.538 211.143,297.664 212.323,294.795 213.503,292.090 214.683,289.701 215.864,287.765 217.044,286.382 218.224,285.618 219.404,285.490 220.585,285.962 221.765,286.931 222.945,288.238 224.125,289.677 225.306,291.008 226.486,291.982 227.666,292.383 228.846,292.050 230.027,290.909 231.207,288.984 232.387,286.418 233.567,283.449 234.748,280.386 235.928,277.580 237.108,275.376 238.288,274.061 239.469,273.830 240.649,274.760 241.829,276.801 243.009,279.776 244.190,283.415 245.370,287.397 246.550,291.389 247.730,295.091 248.911,298.275 250.091,300.813 251.271,302.673 252.451,303.914 253.632,304.668 254.812,305.103 255.992,305.385 257.172,305.655 258.353,306.014 259.533,306.504 260.713,307.114 261.893,307.802 263.073,308.500 264.254,309.133 265.434,309.627 266.614,309.928 267.794,309.989 268.975,309.769 270.155,309.238 271.335,308.369 272.515,307.139 273.696,305.536 274.876,303.572 276.056,301.295 277.236,298.792 278.417,296.201 279.597,293.707 280.777,291.523 281.957,289.866 283.138,288.934 284.318,288.878 285.498,289.772 286.678,291.603 287.859,294.276 289.039,297.615 290.219,301.385 291.399,305.320 292.580,309.156 293.760,312.648 294.940,315.592 296.120,317.842 297.301,319.312 298.481,319.970 299.661,319.831 300.841,318.958 302.022,317.446 303.202,315.413 304.382,312.998 305.562,310.356 306.743,307.644 307.923,305.011 309.103,302.588 310.283,300.483 311.464,298.752 312.644,297.407 313.824,296.407 315.004,295.658 316.185,295.020 317.365,294.327 318.545,293.413 319.725,292.129 320.906,290.369 322.086,288.100 323.266,285.367 324.446,282.289 325.627,279.053 326.807,275.895 327.987,273.060 329.167,270.776 330.348,269.226 331.528,268.525 332.708,268.708 333.888,269.727 335.069,271.474 336.249,273.792 337.429,276.501 338.609,279.424 339.790,282.416 340.970,285.367 342.150,288.213 343.330,290.934 344.511,293.550 345.691,296.092 346.871,298.593 348.051,301.072 349.232,303.520 350.412,305.884 351.592,308.079 352.772,309.998 353.953,311.522 355.133,312.539 356.313,312.976 357.493,312.807 358.674,312.060 359.854,310.819 361.034,309.218 362.214,307.412 363.395,305.554 364.575,303.773 365.755,302.156 366.935,300.727 368.116,299.452 369.296,298.253 370.476,297.028 371.656,295.674 372.837,294.117 374.017,292.337 375.197,290.370 376.377,288.305 377.558,286.274 378.738,284.434 379.918,282.931 381.098,281.885 382.279,281.381 383.459,281.455 384.639,282.099 385.819,283.272 387.000,284.921 388.180,286.990 389.360,289.436 390.540,292.240 391.721,295.410 392.901,298.974 394.081,302.972 395.261,307.451 396.442,312.444 397.622,317.953 398.802,323.951 399.982,330.371 401.163,337.103 402.343,344.000 403.523,350.898 404.703,357.629 405.884,364.028 407.064,369.959 408.244,375.324 409.424,380.060 410.605,384.133 411.785,387.534 412.965,390.270 414.145,392.344 415.325,393.752 416.506,394.491 417.686,394.554 418.866,393.944 420.046,392.680 421.227,390.817 422.407,388.442 423.587,385.666 424.767,382.624 425.948,379.447 427.128,376.247 428.308,373.084 429.488,369.973 430.669,366.864 431.849,363.651 433.029,360.193 434.209,356.339 435.390,351.946 436.570,346.905 437.750,341.159 438.930,334.712 440.111,327.620 441.291,319.989 442.471,311.957 443.651,303.673 444.832,295.274 446.012,286.873 447.192,278.556 448.372,270.371 449.553,262.337 450.733,254.464 451.913,246.760 453.093,239.240 454.274,231.939 455.454,224.920 456.634,218.263 457.814,212.053 458.995,206.380 460.175,201.314 461.355,196.894 462.535,193.116 463.716,189.936 464.896,187.270 466.076,184.994 467.256,182.970 468.437,181.063 469.617,179.151 470.797,177.142 471.977,174.989 473.158,172.697 474.338,170.311 475.518,167.912 476.698,165.607 477.879,163.507 479.059,161.704 480.239,160.262 481.419,159.216 482.600,158.558 483.780,158.255 484.960,158.260 486.140,158.529 487.321,159.030 488.501,159.752 489.681,160.713 490.861,161.950 492.042,163.500 493.222,165.400 494.402,167.658 495.582,170.247 496.763,173.090 497.943,176.070 499.123,179.038 500.303,181.819 501.484,184.244 502.664,186.165 503.844,187.474 505.024,188.112 506.205,188.080 507.385,187.445 508.565,186.316 509.745,184.845 510.926,183.209 512.106,181.588 513.286,180.144 514.466,179.003 515.647,178.252 516.827,177.914 518.007,177.957 519.187,178.298 520.368,178.817 521.548,179.368 522.728,179.803 523.908,179.994 525.089,179.850 526.269,179.324 527.449,178.419 528.629,177.183 529.810,175.688 530.990,174.005 532.170,172.192 533.350,170.272 534.531,168.216 535.711,165.959 536.891,163.409 538.071,160.466 539.252,157.047 540.432,153.113 541.612,148.685 542.792,143.846 543.973,138.732 545.153,133.526 546.333,128.423 547.513,123.606 548.694,119.219 549.874,115.362 551.054,112.073 552.234,109.335 553.415,107.101 554.595,105.311 555.775,103.915 556.955,102.887 558.136,102.249 559.316,102.067 560.496,102.433 561.676,103.460 562.857,105.252 564.037,107.876 565.217,111.343 566.397,115.594 567.577,120.504 568.758,125.877 569.938,131.478 571.118,137.049 572.298,142.343 573.479,147.145 574.659,151.293 575.839,154.707 577.019,157.373 578.200,159.353 579.380,160.770 580.560,161.784 581.740,162.570 582.921,163.290 584.101,164.088 585.281,165.063 586.461,166.265 587.642,167.705 588.822,169.357 590.002,171.166 591.182,173.058 592.363,174.954 593.543,176.783 594.723,178.472 595.903,179.968 597.084,181.234 598.264,182.245 599.444,182.985 600.624,183.455 601.805,183.668 602.985,183.642 604.165,183.409 605.345,183.015 606.526,182.518 607.706,181.983 608.886,181.479 610.066,181.087 611.247,180.874 612.427,180.891 613.607,181.171 614.787,181.718 615.968,182.496 617.148,183.429 618.328,184.415 619.508,185.317 620.689,185.985 621.869,186.271 623.049,186.049 624.229,185.229 625.410,183.770 626.590,181.699 627.770,179.107 628.950,176.140 630.131,172.995 631.311,169.897 632.491,167.078 633.671,164.747 634.852,163.082 636.032,162.212 637.212,162.205 638.392,163.068 639.573,164.757 640.753,167.187 641.933,170.233 643.113,173.757 644.294,177.623 645.474,181.700 646.654,185.878 647.834,190.078 649.015,194.250 650.195,198.366 651.375,202.413 652.555,206.395 653.736,210.314 654.916,214.167 656.096,217.947 657.276,221.641 658.457,225.234 659.637,228.708 660.817,232.058 661.997,235.290 663.178,238.423 664.358,241.493 665.538,244.551 666.718,247.658 667.899,250.872 669.079,254.244 670.259,257.816 671.439,261.600 672.620,265.576 673.800,269.699 674.980,273.890 676.160,278.040 677.341,282.020 678.521,285.703 679.701,288.970 680.881,291.730 682.062,293.949 683.242,295.653 684.422,296.938 685.602,297.966 686.783,298.956 687.963,300.160 689.143,301.823 690.323,304.163 691.504,307.334 692.684,311.396 693.864,316.300 695.044,321.894 696.225,327.939 697.405,334.131 698.585,340.151 699.765,345.703 700.946,350.552 702.126,354.552 703.306,357.659 704.486,359.932 705.667,361.506 706.847,362.566 708.027,363.315 709.207,363.937 710.388,364.562 711.568,365.254 712.748,366.010 713.928,366.760 715.109,367.383 716.289,367.747 717.469,367.725 718.649,367.227 719.830,366.219 721.010,364.734 722.190,362.875 "/>
<g>
</g>
</g>
<g id="ID000009" clip-path="url(#ID000001)" >
      <polyline fill="none" stroke="#00ff00" stroke-width="2.0pt" stroke-dasharray="none" points="103.740,299.300 104.920,299.329 106.100,299.478 107.281,299.685 108.461,299.874 109.641,299.963 110.821,299.874 112.002,299.541 113.182,298.918 114.362,297.983 115.542,296.742 116.723,295.226 117.903,293.492 119.083,291.613 120.263,289.675 121.444,287.764 122.624,285.965 123.804,284.354 124.984,282.987 126.165,281.899 127.345,281.106 128.525,280.598 129.705,280.344 130.886,280.297 132.066,280.401 133.246,280.595 134.426,280.818 135.607,281.024 136.787,281.177 137.967,281.259 139.147,281.267 140.328,281.215 141.508,281.129 142.688,281.035 143.868,280.964 145.049,280.942 146.229,280.988 147.409,281.115 148.589,281.332 149.770,281.645 150.950,282.054 152.130,282.557 153.310,283.151 154.491,283.829 155.671,284.575 156.851,285.374 158.031,286.207 159.212,287.059 160.392,287.916 161.572,288.783 162.752,289.676 163.933,290.627 165.113,291.687 166.293,292.910 167.473,294.352 168.654,296.047 169.834,298.007 171.014,300.206 172.194,302.575 173.375,305.006 174.555,307.362 175.735,309.492 176.915,311.243 178.096,312.487 179.276,313.135 180.456,313.148 181.636,312.547 182.817,311.408 183.997,309.855 185.177,308.038 186.357,306.116 187.538,304.237 188.718,302.514 189.898,301.015 191.078,299.756 192.259,298.708 193.439,297.797 194.619,296.928 195.799,296.004 196.980,294.937 198.160,293.670 199.340,292.183 200.520,290.496 201.701,288.664 202.881,286.755 204.061,284.846 205.241,283.001 206.422,281.260 207.602,279.636 208.782,278.123 209.962,276.702 211.143,275.362 212.323,274.114 213.503,273.005 214.683,272.122 215.864,271.587 217.044,271.546 218.224,272.148 219.404,273.513 220.585,275.711 221.765,278.748 222.945,282.544 224.125,286.943 225.306,291.726 226.486,296.635 227.666,301.403 228.846,305.789 230.027,309.606 231.207,312.740 232.387,315.159 233.567,316.908 234.748,318.096 235.928,318.871 237.108,319.389 238.288,319.797 239.469,320.207 240.649,320.690 241.829,321.274 243.009,321.952 244.190,322.698 245.370,323.478 246.550,324.267 247.730,325.059 248.911,325.865 250.091,326.714 251.271,327.647 252.451,328.705 253.632,329.920 254.812,331.302 255.992,332.845 257.172,334.518 258.353,336.273 259.533,338.055 260.713,339.808 261.893,341.486 263.073,343.052 264.254,344.490 265.434,345.799 266.614,346.985 267.794,348.067 268.975,349.062 270.155,349.986 271.335,350.842 272.515,351.626 273.696,352.320 274.876,352.897 276.056,353.318 277.236,353.546 278.417,353.543 279.597,353.276 280.777,352.724 281.957,351.883 283.138,350.763 284.318,349.394 285.498,347.827 286.678,346.131 287.859,344.384 289.039,342.668 290.219,341.065 291.399,339.641 292.580,338.438 293.760,337.471 294.940,336.726 296.120,336.157 297.301,335.695 298.481,335.262 299.661,334.783 300.841,334.200 302.022,333.485 303.202,332.648 304.382,331.739 305.562,330.837 306.743,330.038 307.923,329.441 309.103,329.121 310.283,329.121 311.464,329.440 312.644,330.036 313.824,330.826 315.004,331.709 316.185,332.584 317.365,333.367 318.545,334.007 319.725,334.505 320.906,334.911 322.086,335.314 323.266,335.831 324.446,336.588 325.627,337.694 326.807,339.224 327.987,341.202 329.167,343.603 330.348,346.352 331.528,349.338 332.708,352.432 333.888,355.512 335.069,358.472 336.249,361.248 337.429,363.817 338.609,366.201 339.790,368.452 340.970,370.646 342.150,372.862 343.330,375.169 344.511,377.612 345.691,380.209 346.871,382.949 348.051,385.797 349.232,388.703 350.412,391.618 351.592,394.495 352.772,397.306 353.953,400.038 355.133,402.695 356.313,405.288 357.493,407.827 358.674,410.316 359.854,412.740 361.034,415.066 362.214,417.246 363.395,419.227 364.575,420.956 365.755,422.396 366.935,423.531 368.116,424.379 369.296,424.979 370.476,425.394 371.656,425.697 372.837,425.961 374.017,426.234 375.197,426.540 376.377,426.870 377.558,427.176 378.738,427.387 379.918,427.418 381.098,427.190 382.279,426.641 383.459,425.745 384.639,424.518 385.819,423.021 387.000,421.352 388.180,419.636 389.360,418.010 390.540,416.603 391.721,415.519 392.901,414.829 394.081,414.563 395.261,414.710 396.442,415.230 397.622,416.070 398.802,417.171 399.982,418.491 401.163,420.012 402.343,421.746 403.523,423.729 404.703,426.018 405.884,428.667 407.064,431.718 408.244,435.178 409.424,439.006 410.605,443.113 411.785,447.363 412.965,451.584 414.145,455.589 415.325,459.201 416.506,462.267 417.686,464.675 418.866,466.367 420.046,467.335 421.227,467.610 422.407,467.256 423.587,466.349 424.767,464.963 425.948,463.157 427.128,460.972 428.308,458.427 429.488,455.526 430.669,452.261 431.849,448.629 433.029,444.636 434.209,440.301 435.390,435.662 436.570,430.779 437.750,425.719 438.930,420.560 440.111,415.381 441.291,410.258 442.471,405.252 443.651,400.415 444.832,395.789 446.012,391.400 447.192,387.267 448.372,383.401 449.553,379.810 450.733,376.492 451.913,373.435 453.093,370.618 454.274,367.999 455.454,365.521 456.634,363.105 457.814,360.659 458.995,358.077 460.175,355.248 461.355,352.072 462.535,348.466 463.716,344.375 464.896,339.785 466.076,334.730 467.256,329.294 468.437,323.603 469.617,317.821 470.797,312.135 471.977,306.730 473.158,301.775 474.338,297.401 475.518,293.686 476.698,290.642 477.879,288.218 479.059,286.307 480.239,284.762 481.419,283.414 482.600,282.106 483.780,280.708 484.960,279.139 486.140,277.375 487.321,275.451 488.501,273.449 489.681,271.477 490.861,269.655 492.042,268.088 493.222,266.851 494.402,265.971 495.582,265.431 496.763,265.176 497.943,265.120 499.123,265.172 500.303,265.245 501.484,265.280 502.664,265.240 503.844,265.121 505.024,264.941 506.205,264.726 507.385,264.495 508.565,264.250 509.745,263.968 510.926,263.595 512.106,263.055 513.286,262.266 514.466,261.148 515.647,259.650 516.827,257.761 518.007,255.523 519.187,253.031 520.368,250.429 521.548,247.898 522.728,245.634 523.908,243.824 525.089,242.628 526.269,242.154 527.449,242.448 528.629,243.476 529.810,245.136 530.990,247.262 532.170,249.638 533.350,252.026 534.531,254.190 535.711,255.924 536.891,257.069 538.071,257.534 539.252,257.301 540.432,256.421 541.612,255.002 542.792,253.196 543.973,251.173 545.153,249.102 546.333,247.123 547.513,245.346 548.694,243.831 549.874,242.590 551.054,241.594 552.234,240.781 553.415,240.066 554.595,239.357 555.775,238.566 556.955,237.623 558.136,236.479 559.316,235.117 560.496,233.551 561.676,231.825 562.857,229.999 564.037,228.147 565.217,226.344 566.397,224.650 567.577,223.104 568.758,221.724 569.938,220.502 571.118,219.411 572.298,218.409 573.479,217.457 574.659,216.519 575.839,215.570 577.019,214.601 578.200,213.616 579.380,212.629 580.560,211.658 581.740,210.727 582.921,209.855 584.101,209.061 585.281,208.364 586.461,207.789 587.642,207.360 588.822,207.103 590.002,207.043 591.182,207.199 592.363,207.573 593.543,208.150 594.723,208.897 595.903,209.759 597.084,210.671 598.264,211.565 599.444,212.385 600.624,213.096 601.805,213.693 602.985,214.208 604.165,214.706 605.345,215.269 606.526,215.991 607.706,216.958 608.886,218.229 610.066,219.826 611.247,221.729 612.427,223.879 613.607,226.180 614.787,228.513 615.968,230.756 617.148,232.793 618.328,234.525 619.508,235.885 620.689,236.833 621.869,237.361 623.049,237.483 624.229,237.234 625.410,236.665 626.590,235.835 627.770,234.811 628.950,233.664 630.131,232.473 631.311,231.314 632.491,230.262 633.671,229.386 634.852,228.737 636.032,228.348 637.212,228.229 638.392,228.362 639.573,228.703 640.753,229.182 641.933,229.717 643.113,230.218 644.294,230.598 645.474,230.782 646.654,230.717 647.834,230.371 649.015,229.730 650.195,228.802 651.375,227.603 652.555,226.155 653.736,224.482 654.916,222.607 656.096,220.559 657.276,218.370 658.457,216.087 659.637,213.778 660.817,211.531 661.997,209.452 663.178,207.664 664.358,206.288 665.538,205.431 666.718,205.168 667.899,205.530 669.079,206.491 670.259,207.969 671.439,209.836 672.620,211.931 673.800,214.080 674.980,216.119 676.160,217.920 677.341,219.400 678.521,220.531 679.701,221.339 680.881,221.892 682.062,222.285 683.242,222.611 684.422,222.953 685.602,223.363 686.783,223.849 687.963,224.383 689.143,224.905 690.323,225.339 691.504,225.602 692.684,225.626 693.864,225.372 695.044,224.832 696.225,224.036 697.405,223.045 698.585,221.943 699.765,220.822 700.946,219.767 702.126,218.852 703.306,218.121 704.486,217.595 705.667,217.268 706.847,217.119 708.027,217.115 709.207,217.220 710.388,217.406 711.568,217.650 712.748,217.938 713.928,218.263 715.109,218.621 716.289,219.006 717.469,219.404 718.649,219.799 719.830,220.165 721.010,220.475 722.190,220.701 "/>
<g>
</g>
</g>
<g id="ID000010" >
  <g transform="translate(412.465,547.010)">
    <g transform="rotate(-0.0)">
      <text x="0.000" y="0.000" font-family="Helvetica" text-anchor="middle" font-size="14pt" fill="#000000" >time (sec)</text>
    </g>
  </g>
</g>
<g id="ID000011" >
  <g transform="translate(63.713,276.508)">
    <g transform="rotate(-90.0)">
      <text x="0.000" y="0.000" font-family="Helvetica" text-anchor="middle" font-size="14pt" fill="#000000" ><tspan>Amplitude (</tspan><tspan>&#181;</tspan><tspan>V)</tspan></text>
    </g>
  </g>
</g>
<g id="ID000012" >
  <g transform="translate(412.465,31.819)">
    <g transform="rotate(-0.0)">
      <text x="0.000" y="0.000" font-family="Helvetica" text-anchor="middle" font-size="14pt" fill="#000000" >Average ERP: RAntHyp1</text>
    </g>
  </g>
</g>
<g id="ID000013" >
</g>
<g id="ID000014" >
</g>
<g id="ID000015" >
      <polyline fill="none" stroke="#000000" stroke-width="2.0pt" stroke-dasharray="none" points="103.740,508.190 103.740,42.825 "/>
<g>
</g>
</g>
<g id="ID000016" >
      <polyline fill="none" stroke="#000000" stroke-width="2.0pt" stroke-dasharray="none" points="103.740,508.190 722.190,508.190 "/>
<g>
</g>
</g>
    </g>
    <g>
      <polyline fill="none" stroke="#000000" stroke-width="2.0pt" stroke-dasharray="none" points="104.684,508.190 104.684,502.005 "/>
      <polyline fill="none" stroke="#000000" stroke-width="2.0pt" stroke-dasharray="none" points="207.602,508.190 207.602,502.005 "/>
      <polyline fill="none" stroke="#000000" stroke-width="2.0pt" stroke-dasharray="none" points="310.519,508.190 310.519,502.005 "/>
      <polyline fill="none" stroke="#000000" stroke-width="2.0pt" stroke-dasharray="none" points="413.437,508.190 413.437,502.005 "/>
      <polyline fill="none" stroke="#000000" stroke-width="2.0pt" stroke-dasharray="none" points="516.355,508.190 516.355,502.005 "/>
      <polyline fill="none" stroke="#000000" stroke-width="2.0pt" stroke-dasharray="none" points="619.272,508.190 619.272,502.005 "/>
      <polyline fill="none" stroke="#000000" stroke-width="2.0pt" stroke-dasharray="none" points="103.740,508.190 722.190,508.190 "/>
  <g transform="translate(104.684,529.297)">
    <g transform="rotate(-0.0)">
      <text x="0.000" y="0.000" font-family="Helvetica" text-anchor="middle" font-size="10pt" fill="#000000" >-0.2</text>
    </g>
  </g>
  <g transform="translate(207.602,529.297)">
    <g transform="rotate(-0.0)">
      <text x="0.000" y="0.000" font-family="Helvetica" text-anchor="middle" font-size="10pt" fill="#000000" >0</text>
    </g>
  </g>
  <g transform="translate(310.519,529.297)">
    <g transform="rotate(-0.0)">
      <text x="0.000" y="0.000" font-family="Helvetica" text-anchor="middle" font-size="10pt" fill="#000000" >0.2</text>
    </g>
  </g>
  <g transform="translate(413.437,529.297)">
    <g transform="rotate(-0.0)">
      <text x="0.000" y="0.000" font-family="Helvetica" text-anchor="middle" font-size="10pt" fill="#000000" >0.4</text>
    </g>
  </g>
  <g transform="translate(516.355,529.297)">
    <g transform="rotate(-0.0)">
      <text x="0.000" y="0.000" font-family="Helvetica" text-anchor="middle" font-size="10pt" fill="#000000" >0.6</text>
    </g>
  </g>
  <g transform="translate(619.272,529.297)">
    <g transform="rotate(-0.0)">
      <text x="0.000" y="0.000" font-family="Helvetica" text-anchor="middle" font-size="10pt" fill="#000000" >0.8</text>
    </g>
  </g>
      <polyline fill="none" stroke="#000000" stroke-width="2.0pt" stroke-dasharray="none" points="103.740,475.542 109.925,475.542 "/>
      <polyline fill="none" stroke="#000000" stroke-width="2.0pt" stroke-dasharray="none" points="103.740,383.813 109.925,383.813 "/>
      <polyline fill="none" stroke="#000000" stroke-width="2.0pt" stroke-dasharray="none" points="103.740,292.085 109.925,292.085 "/>
      <polyline fill="none" stroke="#000000" stroke-width="2.0pt" stroke-dasharray="none" points="103.740,200.356 109.925,200.356 "/>
      <polyline fill="none" stroke="#000000" stroke-width="2.0pt" stroke-dasharray="none" points="103.740,108.627 109.925,108.627 "/>
      <polyline fill="none" stroke="#000000" stroke-width="2.0pt" stroke-dasharray="none" points="103.740,508.190 103.740,42.825 "/>
  <g transform="translate(91.371,480.042)">
    <g transform="rotate(-0.0)">
      <text x="0.000" y="0.000" font-family="Helvetica" text-anchor="end" font-size="10pt" fill="#000000" >-100</text>
    </g>
  </g>
  <g transform="translate(91.371,388.313)">
    <g transform="rotate(-0.0)">
      <text x="0.000" y="0.000" font-family="Helvetica" text-anchor="end" font-size="10pt" fill="#000000" >-50</text>
    </g>
  </g>
  <g transform="translate(91.371,296.585)">
    <g transform="rotate(-0.0)">
      <text x="0.000" y="0.000" font-family="Helvetica" text-anchor="end" font-size="10pt" fill="#000000" >0</text>
    </g>
  </g>
  <g transform="translate(91.371,204.856)">
    <g transform="rotate(-0.0)">
      <text x="0.000" y="0.000" font-family="Helvetica" text-anchor="end" font-size="10pt" fill="#000000" >50</text>
    </g>
  </g>
  <g transform="translate(91.371,113.127)">
    <g transform="rotate(-0.0)">
      <text x="0.000" y="0.000" font-family="Helvetica" text-anchor="end" font-size="10pt" fill="#000000" >100</text>
    </g>
  </g>
      <polyline fill="none" stroke="#000000" stroke-width="2.0pt" stroke-dasharray="none" points="103.740,508.190 103.740,503.536 "/>
      <polyline fill="none" stroke="#000000" stroke-width="2.0pt" stroke-dasharray="none" points="103.740,508.190 103.740,503.536 "/>
      <polyline fill="none" stroke="#000000" stroke-width="2.0pt" stroke-dasharray="none" points="103.740,508.190 103.740,503.536 "/>
      <polyline fill="none" stroke="#000000" stroke-width="2.0pt" stroke-dasharray="none" points="103.740,508.190 103.740,508.190 "/>
    </g>
  </g>
  <g id ="ID000017">
  <clipPath id="ID000018">
    <rect x="638.250" y="45.250" width="78.500" height="66.250"/>
  </clipPath>
      <polygon fill="#ffffff" fill-opacity="1.00" stroke="none" stroke-width="0.5pt" stroke-opacity="1.00" stroke-dasharray="none" points="638.250,111.500 716.750,111.500 716.750,45.250 638.250,45.250 "/>
      <polygon fill="#ffffff" fill-opacity="1.00" stroke="none" stroke-width="0.5pt" stroke-opacity="1.00" stroke-dasharray="none" points="638.250,45.250 716.750,45.250 716.750,45.250 638.250,45.250 "/>
      <polygon fill="#ffffff" fill-opacity="1.00" stroke="none" stroke-width="0.5pt" stroke-opacity="1.00" stroke-dasharray="none" points="638.250,111.500 638.250,111.500 638.250,45.250 638.250,45.250 "/>
    <g>
<g id="ID000019" >
  <g transform="translate(688.430,63.099)">
    <g transform="rotate(-0.0)">
      <text x="0.000" y="0.000" font-family="Helvetica" text-anchor="start" font-size="10pt" fill="#000000" >low</text>
    </g>
  </g>
</g>
<g id="ID000020" clip-path="url(#ID000018)" >
      <polyline fill="none" stroke="#ff0000" stroke-width="2.0pt" stroke-dasharray="none" points="645.750,57.750 683.250,57.750 "/>
<g>
</g>
</g>
<g id="ID000021" clip-path="url(#ID000018)" >
<g>
</g>
</g>
<g id="ID000022" >
  <g transform="translate(688.430,83.864)">
    <g transform="rotate(-0.0)">
      <text x="0.000" y="0.000" font-family="Helvetica" text-anchor="start" font-size="10pt" fill="#000000" >med</text>
    </g>
  </g>
</g>
<g id="ID000023" clip-path="url(#ID000018)" >
      <polyline fill="none" stroke="#0000ff" stroke-width="2.0pt" stroke-dasharray="none" points="645.750,78.375 683.250,78.375 "/>
<g>
</g>
</g>
<g id="ID000024" clip-path="url(#ID000018)" >
<g>
</g>
</g>
<g id="ID000025" >
  <g transform="translate(688.430,104.629)">
    <g transform="rotate(-0.0)">
      <text x="0.000" y="0.000" font-family="Helvetica" text-anchor="start" font-size="10pt" fill="#000000" >high</text>
    </g>
  </g>
</g>
<g id="ID000026" clip-path="url(#ID000018)" >
      <polyline fill="none" stroke="#00ff00" stroke-width="2.0pt" stroke-dasharray="none" points="645.750,99.000 683.250,99.000 "/>
<g>
</g>
</g>
<g id="ID000027" clip-path="url(#ID000018)" >
<g>
</g>
</g>
<g id="ID000028" >
</g>
<g id="ID000029" >
</g>
<g id="ID000030" >
</g>
    </g>
    <g>
      <polyline fill="none" stroke="#000000" stroke-width="0.5pt" stroke-dasharray="none" points="638.250,111.500 716.750,111.500 "/>
      <polyline fill="none" stroke="#000000" stroke-width="0.5pt" stroke-dasharray="none" points="638.250,45.250 716.750,45.250 "/>
      <polyline fill="none" stroke="#000000" stroke-width="0.5pt" stroke-dasharray="none" points="638.250,111.500 638.250,45.250 "/>
      <polyline fill="none" stroke="#000000" stroke-width="0.5pt" stroke-dasharray="none" points="716.750,111.500 716.750,45.250 "/>
      <polyline fill="none" stroke="#000000" stroke-width="0.5pt" stroke-dasharray="none" points="638.250,111.500 638.250,110.837 "/>
      <polyline fill="none" stroke="#000000" stroke-width="0.5pt" stroke-dasharray="none" points="638.250,111.500 638.250,111.500 "/>
    </g>
  </g>
  </g>
</svg>
